%TF.GenerationSoftware,KiCad,Pcbnew,(7.0.0)*%
%TF.CreationDate,2023-04-20T20:25:40+02:00*%
%TF.ProjectId,EnviroHAT,456e7669-726f-4484-9154-2e6b69636164,rev?*%
%TF.SameCoordinates,Original*%
%TF.FileFunction,Soldermask,Bot*%
%TF.FilePolarity,Negative*%
%FSLAX46Y46*%
G04 Gerber Fmt 4.6, Leading zero omitted, Abs format (unit mm)*
G04 Created by KiCad (PCBNEW (7.0.0)) date 2023-04-20 20:25:40*
%MOMM*%
%LPD*%
G01*
G04 APERTURE LIST*
%ADD10R,1.700000X1.700000*%
%ADD11O,1.700000X1.700000*%
%ADD12C,2.000000*%
%ADD13C,1.300000*%
%ADD14O,1.070000X2.140000*%
G04 APERTURE END LIST*
D10*
%TO.C,J3*%
X132079999Y-48005999D03*
D11*
X132079999Y-50545999D03*
X132079999Y-53085999D03*
X132079999Y-55625999D03*
X132079999Y-58165999D03*
X132079999Y-60705999D03*
X132079999Y-63245999D03*
X132079999Y-65785999D03*
X132079999Y-68325999D03*
X132079999Y-70865999D03*
X132079999Y-73405999D03*
X132079999Y-75945999D03*
X132079999Y-78485999D03*
X132079999Y-81025999D03*
X132079999Y-83565999D03*
X132079999Y-86105999D03*
X132079999Y-88645999D03*
X132079999Y-91185999D03*
X132079999Y-93725999D03*
X132079999Y-96265999D03*
X132079999Y-98805999D03*
X132079999Y-101345999D03*
X132079999Y-103885999D03*
X132079999Y-106425999D03*
X132079999Y-108965999D03*
X132079999Y-111505999D03*
X132079999Y-114045999D03*
X132079999Y-116585999D03*
X132079999Y-119125999D03*
X132079999Y-121665999D03*
X132079999Y-124205999D03*
X132079999Y-126745999D03*
X132079999Y-129285999D03*
%TD*%
D10*
%TO.C,J2*%
X93979999Y-48005999D03*
D11*
X93979999Y-50545999D03*
X93979999Y-53085999D03*
X93979999Y-55625999D03*
X93979999Y-58165999D03*
X93979999Y-60705999D03*
X93979999Y-63245999D03*
X93979999Y-65785999D03*
X93979999Y-68325999D03*
X93979999Y-70865999D03*
X93979999Y-73405999D03*
X93979999Y-75945999D03*
X93979999Y-78485999D03*
X93979999Y-81025999D03*
X93979999Y-83565999D03*
X93979999Y-86105999D03*
X93979999Y-88645999D03*
X93979999Y-91185999D03*
X93979999Y-93725999D03*
X93979999Y-96265999D03*
X93979999Y-98805999D03*
X93979999Y-101345999D03*
X93979999Y-103885999D03*
X93979999Y-106425999D03*
X93979999Y-108965999D03*
X93979999Y-111505999D03*
X93979999Y-114045999D03*
X93979999Y-116585999D03*
X93979999Y-119125999D03*
X93979999Y-121665999D03*
X93979999Y-124205999D03*
X93979999Y-126745999D03*
X93979999Y-129285999D03*
%TD*%
D10*
%TO.C,J1*%
X163956999Y-133095999D03*
D11*
X166496999Y-133095999D03*
X169036999Y-133095999D03*
X171576999Y-133095999D03*
X174116999Y-133095999D03*
X176656999Y-133095999D03*
X179196999Y-133095999D03*
X181736999Y-133095999D03*
X184276999Y-133095999D03*
X186816999Y-133095999D03*
%TD*%
D12*
%TO.C,BT1*%
X176403000Y-45085000D03*
X176403000Y-116685000D03*
%TD*%
D13*
%TO.C,J4*%
X158762000Y-43008000D03*
X153912000Y-43008000D03*
D14*
X159936999Y-40357999D03*
X152736999Y-40357999D03*
%TD*%
M02*
