%TF.GenerationSoftware,KiCad,Pcbnew,(7.0.0)*%
%TF.CreationDate,2023-04-13T21:13:31+02:00*%
%TF.ProjectId,EnviroHAT,456e7669-726f-4484-9154-2e6b69636164,rev?*%
%TF.SameCoordinates,Original*%
%TF.FileFunction,Soldermask,Bot*%
%TF.FilePolarity,Negative*%
%FSLAX46Y46*%
G04 Gerber Fmt 4.6, Leading zero omitted, Abs format (unit mm)*
G04 Created by KiCad (PCBNEW (7.0.0)) date 2023-04-13 21:13:31*
%MOMM*%
%LPD*%
G01*
G04 APERTURE LIST*
%ADD10C,2.000000*%
%ADD11R,1.700000X1.700000*%
%ADD12O,1.700000X1.700000*%
%ADD13C,1.300000*%
%ADD14O,1.070000X2.140000*%
G04 APERTURE END LIST*
D10*
%TO.C,BT1*%
X176403000Y-116685000D03*
X176403000Y-45085000D03*
%TD*%
D11*
%TO.C,J1*%
X163956999Y-133095999D03*
D12*
X166496999Y-133095999D03*
X169036999Y-133095999D03*
X171576999Y-133095999D03*
X174116999Y-133095999D03*
X176656999Y-133095999D03*
X179196999Y-133095999D03*
X181736999Y-133095999D03*
X184276999Y-133095999D03*
X186816999Y-133095999D03*
%TD*%
D11*
%TO.C,J3*%
X132004999Y-48000999D03*
D12*
X132004999Y-50540999D03*
X132004999Y-53080999D03*
X132004999Y-55620999D03*
X132004999Y-58160999D03*
X132004999Y-60700999D03*
X132004999Y-63240999D03*
X132004999Y-65780999D03*
X132004999Y-68320999D03*
X132004999Y-70860999D03*
X132004999Y-73400999D03*
X132004999Y-75940999D03*
X132004999Y-78480999D03*
X132004999Y-81020999D03*
X132004999Y-83560999D03*
X132004999Y-86100999D03*
X132004999Y-88640999D03*
X132004999Y-91180999D03*
X132004999Y-93720999D03*
X132004999Y-96260999D03*
X132004999Y-98800999D03*
X132004999Y-101340999D03*
X132004999Y-103880999D03*
X132004999Y-106420999D03*
X132004999Y-108960999D03*
X132004999Y-111500999D03*
X132004999Y-114040999D03*
X132004999Y-116580999D03*
X132004999Y-119120999D03*
X132004999Y-121660999D03*
X132004999Y-124200999D03*
X132004999Y-126740999D03*
%TD*%
D11*
%TO.C,J2*%
X94004999Y-48000999D03*
D12*
X94004999Y-50540999D03*
X94004999Y-53080999D03*
X94004999Y-55620999D03*
X94004999Y-58160999D03*
X94004999Y-60700999D03*
X94004999Y-63240999D03*
X94004999Y-65780999D03*
X94004999Y-68320999D03*
X94004999Y-70860999D03*
X94004999Y-73400999D03*
X94004999Y-75940999D03*
X94004999Y-78480999D03*
X94004999Y-81020999D03*
X94004999Y-83560999D03*
X94004999Y-86100999D03*
X94004999Y-88640999D03*
X94004999Y-91180999D03*
X94004999Y-93720999D03*
X94004999Y-96260999D03*
X94004999Y-98800999D03*
X94004999Y-101340999D03*
X94004999Y-103880999D03*
X94004999Y-106420999D03*
X94004999Y-108960999D03*
X94004999Y-111500999D03*
X94004999Y-114040999D03*
X94004999Y-116580999D03*
X94004999Y-119120999D03*
X94004999Y-121660999D03*
X94004999Y-124200999D03*
X94004999Y-126740999D03*
%TD*%
D13*
%TO.C,J4*%
X158762000Y-43008000D03*
X153912000Y-43008000D03*
D14*
X159936999Y-40357999D03*
X152736999Y-40357999D03*
%TD*%
M02*
