M48
; DRILL file {KiCad (7.0.0)} date Mon Apr 24 13:22:58 2023
; FORMAT={-:-/ absolute / inch / decimal}
; #@! TF.CreationDate,2023-04-24T13:22:58+02:00
; #@! TF.GenerationSoftware,Kicad,Pcbnew,(7.0.0)
; #@! TF.FileFunction,Plated,1,2,PTH
FMAT,2
INCH
; #@! TA.AperFunction,Plated,PTH,ViaDrill
T1C0.0157
; #@! TA.AperFunction,Plated,PTH,ComponentDrill
T2C0.0197
; #@! TA.AperFunction,Plated,PTH,ComponentDrill
T3C0.0276
; #@! TA.AperFunction,Plated,PTH,ComponentDrill
T4C0.0300
; #@! TA.AperFunction,Plated,PTH,ComponentDrill
T5C0.0394
; #@! TA.AperFunction,Plated,PTH,ComponentDrill
T6C0.0945
; #@! TA.AperFunction,Plated,PTH,ComponentDrill
T7C0.1457
%
G90
G05
T1
X4.5443Y-4.0045
X4.875Y-4.895
X5.18Y-3.56
X5.18Y-3.86
X5.2131Y-3.235
X5.215Y-3.405
X5.2424Y-3.05
X5.245Y-3.595
X5.25Y-3.7
X5.255Y-4.835
X5.3415Y-2.9948
X5.3426Y-5.3049
X5.3427Y-4.097
X5.3673Y-2.2127
X5.3712Y-3.7363
X5.4002Y-2.47
X5.4068Y-3.14
X5.4109Y-2.61
X5.425Y-3.47
X5.44Y-3.3151
X5.4656Y-3.3742
X5.48Y-3.752
X5.53Y-5.08
X5.5669Y-3.6381
X5.5674Y-3.3911
X5.6Y-3.525
X5.6426Y-3.5741
X5.8096Y-2.8798
X5.82Y-2.135
X5.83Y-1.9588
X5.83Y-2.6331
X5.8425Y-3.9887
X5.8598Y-2.3256
X5.8822Y-2.9056
X5.9217Y-2.6723
X5.975Y-3.345
X5.994Y-2.634
X6.0132Y-3.9887
X6.22Y-2.2369
X6.3351Y-5.0061
X6.4563Y-3.8799
T3
X6.0595Y-1.6932
X6.2505Y-1.6932
T4
X4.65Y-1.85
X4.65Y-1.95
X4.65Y-2.05
X4.65Y-2.15
X4.65Y-2.25
X4.65Y-2.35
X4.65Y-2.45
X4.65Y-2.55
X4.65Y-2.65
X4.65Y-2.75
X4.65Y-2.85
X4.65Y-2.95
X4.65Y-3.05
X4.65Y-3.15
X4.65Y-3.25
X4.65Y-3.35
X4.65Y-3.45
X4.65Y-3.55
X4.65Y-3.65
X4.65Y-3.75
X4.65Y-3.85
X4.65Y-3.95
X4.65Y-4.05
X4.65Y-4.15
X5.3Y-1.85
X5.3Y-1.95
X5.3Y-2.05
X5.3Y-2.15
X5.3Y-2.25
X5.3Y-2.35
X5.3Y-2.45
X5.3Y-2.55
X5.3Y-2.65
X5.3Y-2.75
X5.3Y-2.85
X5.3Y-2.95
X5.3Y-3.05
X5.3Y-3.15
X5.3Y-3.25
X5.3Y-3.35
X5.3Y-3.45
X5.3Y-3.55
X5.3Y-3.65
X5.3Y-3.75
X5.3Y-3.85
X5.3Y-3.95
X5.3Y-4.05
X5.3Y-4.15
T5
X6.455Y-5.24
X6.555Y-5.24
X6.655Y-5.24
X6.755Y-5.24
X6.855Y-5.24
X6.955Y-5.24
X7.055Y-5.24
X7.155Y-5.24
X7.255Y-5.24
X7.355Y-5.24
T6
X7.2743Y-1.8498
T7
X6.6444Y-2.1734
X7.2743Y-4.3466
T2
G00X6.0133Y-1.5731
M15
G01X6.0133Y-1.6046
M16
G05
G00X6.2967Y-1.5731
M15
G01X6.2967Y-1.6046
M16
G05
T0
M30
