%TF.GenerationSoftware,KiCad,Pcbnew,(7.0.0)*%
%TF.CreationDate,2023-04-13T21:13:31+02:00*%
%TF.ProjectId,EnviroHAT,456e7669-726f-4484-9154-2e6b69636164,rev?*%
%TF.SameCoordinates,Original*%
%TF.FileFunction,Legend,Top*%
%TF.FilePolarity,Positive*%
%FSLAX46Y46*%
G04 Gerber Fmt 4.6, Leading zero omitted, Abs format (unit mm)*
G04 Created by KiCad (PCBNEW (7.0.0)) date 2023-04-13 21:13:31*
%MOMM*%
%LPD*%
G01*
G04 APERTURE LIST*
%ADD10C,0.300000*%
%ADD11C,0.150000*%
%ADD12C,0.050000*%
%ADD13C,0.120000*%
%ADD14C,0.200000*%
%ADD15C,0.127000*%
%ADD16C,0.076200*%
G04 APERTURE END LIST*
D10*
X147264285Y-82207714D02*
X147192857Y-82279142D01*
X147192857Y-82279142D02*
X146978571Y-82350571D01*
X146978571Y-82350571D02*
X146835714Y-82350571D01*
X146835714Y-82350571D02*
X146621428Y-82279142D01*
X146621428Y-82279142D02*
X146478571Y-82136285D01*
X146478571Y-82136285D02*
X146407142Y-81993428D01*
X146407142Y-81993428D02*
X146335714Y-81707714D01*
X146335714Y-81707714D02*
X146335714Y-81493428D01*
X146335714Y-81493428D02*
X146407142Y-81207714D01*
X146407142Y-81207714D02*
X146478571Y-81064857D01*
X146478571Y-81064857D02*
X146621428Y-80922000D01*
X146621428Y-80922000D02*
X146835714Y-80850571D01*
X146835714Y-80850571D02*
X146978571Y-80850571D01*
X146978571Y-80850571D02*
X147192857Y-80922000D01*
X147192857Y-80922000D02*
X147264285Y-80993428D01*
X147907142Y-82350571D02*
X147907142Y-80850571D01*
X147907142Y-81564857D02*
X148764285Y-81564857D01*
X148764285Y-82350571D02*
X148764285Y-80850571D01*
X150335714Y-82350571D02*
X149835714Y-81636285D01*
X149478571Y-82350571D02*
X149478571Y-80850571D01*
X149478571Y-80850571D02*
X150050000Y-80850571D01*
X150050000Y-80850571D02*
X150192857Y-80922000D01*
X150192857Y-80922000D02*
X150264286Y-80993428D01*
X150264286Y-80993428D02*
X150335714Y-81136285D01*
X150335714Y-81136285D02*
X150335714Y-81350571D01*
X150335714Y-81350571D02*
X150264286Y-81493428D01*
X150264286Y-81493428D02*
X150192857Y-81564857D01*
X150192857Y-81564857D02*
X150050000Y-81636285D01*
X150050000Y-81636285D02*
X149478571Y-81636285D01*
X151764286Y-80922000D02*
X151621429Y-80850571D01*
X151621429Y-80850571D02*
X151407143Y-80850571D01*
X151407143Y-80850571D02*
X151192857Y-80922000D01*
X151192857Y-80922000D02*
X151050000Y-81064857D01*
X151050000Y-81064857D02*
X150978571Y-81207714D01*
X150978571Y-81207714D02*
X150907143Y-81493428D01*
X150907143Y-81493428D02*
X150907143Y-81707714D01*
X150907143Y-81707714D02*
X150978571Y-81993428D01*
X150978571Y-81993428D02*
X151050000Y-82136285D01*
X151050000Y-82136285D02*
X151192857Y-82279142D01*
X151192857Y-82279142D02*
X151407143Y-82350571D01*
X151407143Y-82350571D02*
X151550000Y-82350571D01*
X151550000Y-82350571D02*
X151764286Y-82279142D01*
X151764286Y-82279142D02*
X151835714Y-82207714D01*
X151835714Y-82207714D02*
X151835714Y-81707714D01*
X151835714Y-81707714D02*
X151550000Y-81707714D01*
X146280142Y-40059571D02*
X146280142Y-38559571D01*
X146280142Y-38559571D02*
X146851571Y-38559571D01*
X146851571Y-38559571D02*
X146994428Y-38631000D01*
X146994428Y-38631000D02*
X147065857Y-38702428D01*
X147065857Y-38702428D02*
X147137285Y-38845285D01*
X147137285Y-38845285D02*
X147137285Y-39059571D01*
X147137285Y-39059571D02*
X147065857Y-39202428D01*
X147065857Y-39202428D02*
X146994428Y-39273857D01*
X146994428Y-39273857D02*
X146851571Y-39345285D01*
X146851571Y-39345285D02*
X146280142Y-39345285D01*
X147637285Y-38559571D02*
X147994428Y-40059571D01*
X147994428Y-40059571D02*
X148280142Y-38988142D01*
X148280142Y-38988142D02*
X148565857Y-40059571D01*
X148565857Y-40059571D02*
X148923000Y-38559571D01*
X150351571Y-40059571D02*
X149851571Y-39345285D01*
X149494428Y-40059571D02*
X149494428Y-38559571D01*
X149494428Y-38559571D02*
X150065857Y-38559571D01*
X150065857Y-38559571D02*
X150208714Y-38631000D01*
X150208714Y-38631000D02*
X150280143Y-38702428D01*
X150280143Y-38702428D02*
X150351571Y-38845285D01*
X150351571Y-38845285D02*
X150351571Y-39059571D01*
X150351571Y-39059571D02*
X150280143Y-39202428D01*
X150280143Y-39202428D02*
X150208714Y-39273857D01*
X150208714Y-39273857D02*
X150065857Y-39345285D01*
X150065857Y-39345285D02*
X149494428Y-39345285D01*
X172465857Y-135405000D02*
X172323000Y-135333571D01*
X172323000Y-135333571D02*
X172108714Y-135333571D01*
X172108714Y-135333571D02*
X171894428Y-135405000D01*
X171894428Y-135405000D02*
X171751571Y-135547857D01*
X171751571Y-135547857D02*
X171680142Y-135690714D01*
X171680142Y-135690714D02*
X171608714Y-135976428D01*
X171608714Y-135976428D02*
X171608714Y-136190714D01*
X171608714Y-136190714D02*
X171680142Y-136476428D01*
X171680142Y-136476428D02*
X171751571Y-136619285D01*
X171751571Y-136619285D02*
X171894428Y-136762142D01*
X171894428Y-136762142D02*
X172108714Y-136833571D01*
X172108714Y-136833571D02*
X172251571Y-136833571D01*
X172251571Y-136833571D02*
X172465857Y-136762142D01*
X172465857Y-136762142D02*
X172537285Y-136690714D01*
X172537285Y-136690714D02*
X172537285Y-136190714D01*
X172537285Y-136190714D02*
X172251571Y-136190714D01*
X173180142Y-136833571D02*
X173180142Y-135833571D01*
X173180142Y-136119285D02*
X173251571Y-135976428D01*
X173251571Y-135976428D02*
X173323000Y-135905000D01*
X173323000Y-135905000D02*
X173465857Y-135833571D01*
X173465857Y-135833571D02*
X173608714Y-135833571D01*
X174322999Y-136833571D02*
X174180142Y-136762142D01*
X174180142Y-136762142D02*
X174108713Y-136690714D01*
X174108713Y-136690714D02*
X174037285Y-136547857D01*
X174037285Y-136547857D02*
X174037285Y-136119285D01*
X174037285Y-136119285D02*
X174108713Y-135976428D01*
X174108713Y-135976428D02*
X174180142Y-135905000D01*
X174180142Y-135905000D02*
X174322999Y-135833571D01*
X174322999Y-135833571D02*
X174537285Y-135833571D01*
X174537285Y-135833571D02*
X174680142Y-135905000D01*
X174680142Y-135905000D02*
X174751571Y-135976428D01*
X174751571Y-135976428D02*
X174822999Y-136119285D01*
X174822999Y-136119285D02*
X174822999Y-136547857D01*
X174822999Y-136547857D02*
X174751571Y-136690714D01*
X174751571Y-136690714D02*
X174680142Y-136762142D01*
X174680142Y-136762142D02*
X174537285Y-136833571D01*
X174537285Y-136833571D02*
X174322999Y-136833571D01*
X176108714Y-135833571D02*
X176108714Y-136833571D01*
X175465856Y-135833571D02*
X175465856Y-136619285D01*
X175465856Y-136619285D02*
X175537285Y-136762142D01*
X175537285Y-136762142D02*
X175680142Y-136833571D01*
X175680142Y-136833571D02*
X175894428Y-136833571D01*
X175894428Y-136833571D02*
X176037285Y-136762142D01*
X176037285Y-136762142D02*
X176108714Y-136690714D01*
X176822999Y-135833571D02*
X176822999Y-137333571D01*
X176822999Y-135905000D02*
X176965857Y-135833571D01*
X176965857Y-135833571D02*
X177251571Y-135833571D01*
X177251571Y-135833571D02*
X177394428Y-135905000D01*
X177394428Y-135905000D02*
X177465857Y-135976428D01*
X177465857Y-135976428D02*
X177537285Y-136119285D01*
X177537285Y-136119285D02*
X177537285Y-136547857D01*
X177537285Y-136547857D02*
X177465857Y-136690714D01*
X177465857Y-136690714D02*
X177394428Y-136762142D01*
X177394428Y-136762142D02*
X177251571Y-136833571D01*
X177251571Y-136833571D02*
X176965857Y-136833571D01*
X176965857Y-136833571D02*
X176822999Y-136762142D01*
X179865857Y-136833571D02*
X179008714Y-136833571D01*
X179437285Y-136833571D02*
X179437285Y-135333571D01*
X179437285Y-135333571D02*
X179294428Y-135547857D01*
X179294428Y-135547857D02*
X179151571Y-135690714D01*
X179151571Y-135690714D02*
X179008714Y-135762142D01*
X181222999Y-135333571D02*
X180508713Y-135333571D01*
X180508713Y-135333571D02*
X180437285Y-136047857D01*
X180437285Y-136047857D02*
X180508713Y-135976428D01*
X180508713Y-135976428D02*
X180651571Y-135905000D01*
X180651571Y-135905000D02*
X181008713Y-135905000D01*
X181008713Y-135905000D02*
X181151571Y-135976428D01*
X181151571Y-135976428D02*
X181222999Y-136047857D01*
X181222999Y-136047857D02*
X181294428Y-136190714D01*
X181294428Y-136190714D02*
X181294428Y-136547857D01*
X181294428Y-136547857D02*
X181222999Y-136690714D01*
X181222999Y-136690714D02*
X181151571Y-136762142D01*
X181151571Y-136762142D02*
X181008713Y-136833571D01*
X181008713Y-136833571D02*
X180651571Y-136833571D01*
X180651571Y-136833571D02*
X180508713Y-136762142D01*
X180508713Y-136762142D02*
X180437285Y-136690714D01*
X182622999Y-135333571D02*
X183122999Y-136833571D01*
X183122999Y-136833571D02*
X183622999Y-135333571D01*
X184765856Y-135333571D02*
X184480141Y-135333571D01*
X184480141Y-135333571D02*
X184337284Y-135405000D01*
X184337284Y-135405000D02*
X184265856Y-135476428D01*
X184265856Y-135476428D02*
X184122998Y-135690714D01*
X184122998Y-135690714D02*
X184051570Y-135976428D01*
X184051570Y-135976428D02*
X184051570Y-136547857D01*
X184051570Y-136547857D02*
X184122998Y-136690714D01*
X184122998Y-136690714D02*
X184194427Y-136762142D01*
X184194427Y-136762142D02*
X184337284Y-136833571D01*
X184337284Y-136833571D02*
X184622998Y-136833571D01*
X184622998Y-136833571D02*
X184765856Y-136762142D01*
X184765856Y-136762142D02*
X184837284Y-136690714D01*
X184837284Y-136690714D02*
X184908713Y-136547857D01*
X184908713Y-136547857D02*
X184908713Y-136190714D01*
X184908713Y-136190714D02*
X184837284Y-136047857D01*
X184837284Y-136047857D02*
X184765856Y-135976428D01*
X184765856Y-135976428D02*
X184622998Y-135905000D01*
X184622998Y-135905000D02*
X184337284Y-135905000D01*
X184337284Y-135905000D02*
X184194427Y-135976428D01*
X184194427Y-135976428D02*
X184122998Y-136047857D01*
X184122998Y-136047857D02*
X184051570Y-136190714D01*
X185551569Y-136690714D02*
X185622998Y-136762142D01*
X185622998Y-136762142D02*
X185551569Y-136833571D01*
X185551569Y-136833571D02*
X185480141Y-136762142D01*
X185480141Y-136762142D02*
X185551569Y-136690714D01*
X185551569Y-136690714D02*
X185551569Y-136833571D01*
X186551570Y-135333571D02*
X186694427Y-135333571D01*
X186694427Y-135333571D02*
X186837284Y-135405000D01*
X186837284Y-135405000D02*
X186908713Y-135476428D01*
X186908713Y-135476428D02*
X186980141Y-135619285D01*
X186980141Y-135619285D02*
X187051570Y-135905000D01*
X187051570Y-135905000D02*
X187051570Y-136262142D01*
X187051570Y-136262142D02*
X186980141Y-136547857D01*
X186980141Y-136547857D02*
X186908713Y-136690714D01*
X186908713Y-136690714D02*
X186837284Y-136762142D01*
X186837284Y-136762142D02*
X186694427Y-136833571D01*
X186694427Y-136833571D02*
X186551570Y-136833571D01*
X186551570Y-136833571D02*
X186408713Y-136762142D01*
X186408713Y-136762142D02*
X186337284Y-136690714D01*
X186337284Y-136690714D02*
X186265855Y-136547857D01*
X186265855Y-136547857D02*
X186194427Y-136262142D01*
X186194427Y-136262142D02*
X186194427Y-135905000D01*
X186194427Y-135905000D02*
X186265855Y-135619285D01*
X186265855Y-135619285D02*
X186337284Y-135476428D01*
X186337284Y-135476428D02*
X186408713Y-135405000D01*
X186408713Y-135405000D02*
X186551570Y-135333571D01*
X105005142Y-137722571D02*
X105005142Y-136222571D01*
X105005142Y-136222571D02*
X105362285Y-136222571D01*
X105362285Y-136222571D02*
X105576571Y-136294000D01*
X105576571Y-136294000D02*
X105719428Y-136436857D01*
X105719428Y-136436857D02*
X105790857Y-136579714D01*
X105790857Y-136579714D02*
X105862285Y-136865428D01*
X105862285Y-136865428D02*
X105862285Y-137079714D01*
X105862285Y-137079714D02*
X105790857Y-137365428D01*
X105790857Y-137365428D02*
X105719428Y-137508285D01*
X105719428Y-137508285D02*
X105576571Y-137651142D01*
X105576571Y-137651142D02*
X105362285Y-137722571D01*
X105362285Y-137722571D02*
X105005142Y-137722571D01*
X107005142Y-136936857D02*
X107219428Y-137008285D01*
X107219428Y-137008285D02*
X107290857Y-137079714D01*
X107290857Y-137079714D02*
X107362285Y-137222571D01*
X107362285Y-137222571D02*
X107362285Y-137436857D01*
X107362285Y-137436857D02*
X107290857Y-137579714D01*
X107290857Y-137579714D02*
X107219428Y-137651142D01*
X107219428Y-137651142D02*
X107076571Y-137722571D01*
X107076571Y-137722571D02*
X106505142Y-137722571D01*
X106505142Y-137722571D02*
X106505142Y-136222571D01*
X106505142Y-136222571D02*
X107005142Y-136222571D01*
X107005142Y-136222571D02*
X107148000Y-136294000D01*
X107148000Y-136294000D02*
X107219428Y-136365428D01*
X107219428Y-136365428D02*
X107290857Y-136508285D01*
X107290857Y-136508285D02*
X107290857Y-136651142D01*
X107290857Y-136651142D02*
X107219428Y-136794000D01*
X107219428Y-136794000D02*
X107148000Y-136865428D01*
X107148000Y-136865428D02*
X107005142Y-136936857D01*
X107005142Y-136936857D02*
X106505142Y-136936857D01*
X108790857Y-136294000D02*
X108648000Y-136222571D01*
X108648000Y-136222571D02*
X108433714Y-136222571D01*
X108433714Y-136222571D02*
X108219428Y-136294000D01*
X108219428Y-136294000D02*
X108076571Y-136436857D01*
X108076571Y-136436857D02*
X108005142Y-136579714D01*
X108005142Y-136579714D02*
X107933714Y-136865428D01*
X107933714Y-136865428D02*
X107933714Y-137079714D01*
X107933714Y-137079714D02*
X108005142Y-137365428D01*
X108005142Y-137365428D02*
X108076571Y-137508285D01*
X108076571Y-137508285D02*
X108219428Y-137651142D01*
X108219428Y-137651142D02*
X108433714Y-137722571D01*
X108433714Y-137722571D02*
X108576571Y-137722571D01*
X108576571Y-137722571D02*
X108790857Y-137651142D01*
X108790857Y-137651142D02*
X108862285Y-137579714D01*
X108862285Y-137579714D02*
X108862285Y-137079714D01*
X108862285Y-137079714D02*
X108576571Y-137079714D01*
X118371857Y-136222571D02*
X118657571Y-136222571D01*
X118657571Y-136222571D02*
X118800428Y-136294000D01*
X118800428Y-136294000D02*
X118943285Y-136436857D01*
X118943285Y-136436857D02*
X119014714Y-136722571D01*
X119014714Y-136722571D02*
X119014714Y-137222571D01*
X119014714Y-137222571D02*
X118943285Y-137508285D01*
X118943285Y-137508285D02*
X118800428Y-137651142D01*
X118800428Y-137651142D02*
X118657571Y-137722571D01*
X118657571Y-137722571D02*
X118371857Y-137722571D01*
X118371857Y-137722571D02*
X118229000Y-137651142D01*
X118229000Y-137651142D02*
X118086142Y-137508285D01*
X118086142Y-137508285D02*
X118014714Y-137222571D01*
X118014714Y-137222571D02*
X118014714Y-136722571D01*
X118014714Y-136722571D02*
X118086142Y-136436857D01*
X118086142Y-136436857D02*
X118229000Y-136294000D01*
X118229000Y-136294000D02*
X118371857Y-136222571D01*
X119657571Y-136222571D02*
X119657571Y-137436857D01*
X119657571Y-137436857D02*
X119729000Y-137579714D01*
X119729000Y-137579714D02*
X119800429Y-137651142D01*
X119800429Y-137651142D02*
X119943286Y-137722571D01*
X119943286Y-137722571D02*
X120229000Y-137722571D01*
X120229000Y-137722571D02*
X120371857Y-137651142D01*
X120371857Y-137651142D02*
X120443286Y-137579714D01*
X120443286Y-137579714D02*
X120514714Y-137436857D01*
X120514714Y-137436857D02*
X120514714Y-136222571D01*
X121014715Y-136222571D02*
X121871858Y-136222571D01*
X121443286Y-137722571D02*
X121443286Y-136222571D01*
X146335714Y-78239000D02*
X147050000Y-78239000D01*
X146192857Y-78667571D02*
X146692857Y-77167571D01*
X146692857Y-77167571D02*
X147192857Y-78667571D01*
X148549999Y-78524714D02*
X148478571Y-78596142D01*
X148478571Y-78596142D02*
X148264285Y-78667571D01*
X148264285Y-78667571D02*
X148121428Y-78667571D01*
X148121428Y-78667571D02*
X147907142Y-78596142D01*
X147907142Y-78596142D02*
X147764285Y-78453285D01*
X147764285Y-78453285D02*
X147692856Y-78310428D01*
X147692856Y-78310428D02*
X147621428Y-78024714D01*
X147621428Y-78024714D02*
X147621428Y-77810428D01*
X147621428Y-77810428D02*
X147692856Y-77524714D01*
X147692856Y-77524714D02*
X147764285Y-77381857D01*
X147764285Y-77381857D02*
X147907142Y-77239000D01*
X147907142Y-77239000D02*
X148121428Y-77167571D01*
X148121428Y-77167571D02*
X148264285Y-77167571D01*
X148264285Y-77167571D02*
X148478571Y-77239000D01*
X148478571Y-77239000D02*
X148549999Y-77310428D01*
X149478571Y-77167571D02*
X149764285Y-77167571D01*
X149764285Y-77167571D02*
X149907142Y-77239000D01*
X149907142Y-77239000D02*
X150049999Y-77381857D01*
X150049999Y-77381857D02*
X150121428Y-77667571D01*
X150121428Y-77667571D02*
X150121428Y-78167571D01*
X150121428Y-78167571D02*
X150049999Y-78453285D01*
X150049999Y-78453285D02*
X149907142Y-78596142D01*
X149907142Y-78596142D02*
X149764285Y-78667571D01*
X149764285Y-78667571D02*
X149478571Y-78667571D01*
X149478571Y-78667571D02*
X149335714Y-78596142D01*
X149335714Y-78596142D02*
X149192856Y-78453285D01*
X149192856Y-78453285D02*
X149121428Y-78167571D01*
X149121428Y-78167571D02*
X149121428Y-77667571D01*
X149121428Y-77667571D02*
X149192856Y-77381857D01*
X149192856Y-77381857D02*
X149335714Y-77239000D01*
X149335714Y-77239000D02*
X149478571Y-77167571D01*
X150764285Y-78667571D02*
X150764285Y-77167571D01*
X151621428Y-78667571D02*
X150978571Y-77810428D01*
X151621428Y-77167571D02*
X150764285Y-78024714D01*
D11*
%TO.C,R29*%
X101586380Y-129954857D02*
X101110190Y-130288190D01*
X101586380Y-130526285D02*
X100586380Y-130526285D01*
X100586380Y-130526285D02*
X100586380Y-130145333D01*
X100586380Y-130145333D02*
X100634000Y-130050095D01*
X100634000Y-130050095D02*
X100681619Y-130002476D01*
X100681619Y-130002476D02*
X100776857Y-129954857D01*
X100776857Y-129954857D02*
X100919714Y-129954857D01*
X100919714Y-129954857D02*
X101014952Y-130002476D01*
X101014952Y-130002476D02*
X101062571Y-130050095D01*
X101062571Y-130050095D02*
X101110190Y-130145333D01*
X101110190Y-130145333D02*
X101110190Y-130526285D01*
X100681619Y-129573904D02*
X100634000Y-129526285D01*
X100634000Y-129526285D02*
X100586380Y-129431047D01*
X100586380Y-129431047D02*
X100586380Y-129192952D01*
X100586380Y-129192952D02*
X100634000Y-129097714D01*
X100634000Y-129097714D02*
X100681619Y-129050095D01*
X100681619Y-129050095D02*
X100776857Y-129002476D01*
X100776857Y-129002476D02*
X100872095Y-129002476D01*
X100872095Y-129002476D02*
X101014952Y-129050095D01*
X101014952Y-129050095D02*
X101586380Y-129621523D01*
X101586380Y-129621523D02*
X101586380Y-129002476D01*
X101586380Y-128526285D02*
X101586380Y-128335809D01*
X101586380Y-128335809D02*
X101538761Y-128240571D01*
X101538761Y-128240571D02*
X101491142Y-128192952D01*
X101491142Y-128192952D02*
X101348285Y-128097714D01*
X101348285Y-128097714D02*
X101157809Y-128050095D01*
X101157809Y-128050095D02*
X100776857Y-128050095D01*
X100776857Y-128050095D02*
X100681619Y-128097714D01*
X100681619Y-128097714D02*
X100634000Y-128145333D01*
X100634000Y-128145333D02*
X100586380Y-128240571D01*
X100586380Y-128240571D02*
X100586380Y-128431047D01*
X100586380Y-128431047D02*
X100634000Y-128526285D01*
X100634000Y-128526285D02*
X100681619Y-128573904D01*
X100681619Y-128573904D02*
X100776857Y-128621523D01*
X100776857Y-128621523D02*
X101014952Y-128621523D01*
X101014952Y-128621523D02*
X101110190Y-128573904D01*
X101110190Y-128573904D02*
X101157809Y-128526285D01*
X101157809Y-128526285D02*
X101205428Y-128431047D01*
X101205428Y-128431047D02*
X101205428Y-128240571D01*
X101205428Y-128240571D02*
X101157809Y-128145333D01*
X101157809Y-128145333D02*
X101110190Y-128097714D01*
X101110190Y-128097714D02*
X101014952Y-128050095D01*
%TO.C,R28*%
X99300380Y-130081857D02*
X98824190Y-130415190D01*
X99300380Y-130653285D02*
X98300380Y-130653285D01*
X98300380Y-130653285D02*
X98300380Y-130272333D01*
X98300380Y-130272333D02*
X98348000Y-130177095D01*
X98348000Y-130177095D02*
X98395619Y-130129476D01*
X98395619Y-130129476D02*
X98490857Y-130081857D01*
X98490857Y-130081857D02*
X98633714Y-130081857D01*
X98633714Y-130081857D02*
X98728952Y-130129476D01*
X98728952Y-130129476D02*
X98776571Y-130177095D01*
X98776571Y-130177095D02*
X98824190Y-130272333D01*
X98824190Y-130272333D02*
X98824190Y-130653285D01*
X98395619Y-129700904D02*
X98348000Y-129653285D01*
X98348000Y-129653285D02*
X98300380Y-129558047D01*
X98300380Y-129558047D02*
X98300380Y-129319952D01*
X98300380Y-129319952D02*
X98348000Y-129224714D01*
X98348000Y-129224714D02*
X98395619Y-129177095D01*
X98395619Y-129177095D02*
X98490857Y-129129476D01*
X98490857Y-129129476D02*
X98586095Y-129129476D01*
X98586095Y-129129476D02*
X98728952Y-129177095D01*
X98728952Y-129177095D02*
X99300380Y-129748523D01*
X99300380Y-129748523D02*
X99300380Y-129129476D01*
X98728952Y-128558047D02*
X98681333Y-128653285D01*
X98681333Y-128653285D02*
X98633714Y-128700904D01*
X98633714Y-128700904D02*
X98538476Y-128748523D01*
X98538476Y-128748523D02*
X98490857Y-128748523D01*
X98490857Y-128748523D02*
X98395619Y-128700904D01*
X98395619Y-128700904D02*
X98348000Y-128653285D01*
X98348000Y-128653285D02*
X98300380Y-128558047D01*
X98300380Y-128558047D02*
X98300380Y-128367571D01*
X98300380Y-128367571D02*
X98348000Y-128272333D01*
X98348000Y-128272333D02*
X98395619Y-128224714D01*
X98395619Y-128224714D02*
X98490857Y-128177095D01*
X98490857Y-128177095D02*
X98538476Y-128177095D01*
X98538476Y-128177095D02*
X98633714Y-128224714D01*
X98633714Y-128224714D02*
X98681333Y-128272333D01*
X98681333Y-128272333D02*
X98728952Y-128367571D01*
X98728952Y-128367571D02*
X98728952Y-128558047D01*
X98728952Y-128558047D02*
X98776571Y-128653285D01*
X98776571Y-128653285D02*
X98824190Y-128700904D01*
X98824190Y-128700904D02*
X98919428Y-128748523D01*
X98919428Y-128748523D02*
X99109904Y-128748523D01*
X99109904Y-128748523D02*
X99205142Y-128700904D01*
X99205142Y-128700904D02*
X99252761Y-128653285D01*
X99252761Y-128653285D02*
X99300380Y-128558047D01*
X99300380Y-128558047D02*
X99300380Y-128367571D01*
X99300380Y-128367571D02*
X99252761Y-128272333D01*
X99252761Y-128272333D02*
X99205142Y-128224714D01*
X99205142Y-128224714D02*
X99109904Y-128177095D01*
X99109904Y-128177095D02*
X98919428Y-128177095D01*
X98919428Y-128177095D02*
X98824190Y-128224714D01*
X98824190Y-128224714D02*
X98776571Y-128272333D01*
X98776571Y-128272333D02*
X98728952Y-128367571D01*
%TO.C,R27*%
X101084142Y-125970380D02*
X100750809Y-125494190D01*
X100512714Y-125970380D02*
X100512714Y-124970380D01*
X100512714Y-124970380D02*
X100893666Y-124970380D01*
X100893666Y-124970380D02*
X100988904Y-125018000D01*
X100988904Y-125018000D02*
X101036523Y-125065619D01*
X101036523Y-125065619D02*
X101084142Y-125160857D01*
X101084142Y-125160857D02*
X101084142Y-125303714D01*
X101084142Y-125303714D02*
X101036523Y-125398952D01*
X101036523Y-125398952D02*
X100988904Y-125446571D01*
X100988904Y-125446571D02*
X100893666Y-125494190D01*
X100893666Y-125494190D02*
X100512714Y-125494190D01*
X101465095Y-125065619D02*
X101512714Y-125018000D01*
X101512714Y-125018000D02*
X101607952Y-124970380D01*
X101607952Y-124970380D02*
X101846047Y-124970380D01*
X101846047Y-124970380D02*
X101941285Y-125018000D01*
X101941285Y-125018000D02*
X101988904Y-125065619D01*
X101988904Y-125065619D02*
X102036523Y-125160857D01*
X102036523Y-125160857D02*
X102036523Y-125256095D01*
X102036523Y-125256095D02*
X101988904Y-125398952D01*
X101988904Y-125398952D02*
X101417476Y-125970380D01*
X101417476Y-125970380D02*
X102036523Y-125970380D01*
X102369857Y-124970380D02*
X103036523Y-124970380D01*
X103036523Y-124970380D02*
X102607952Y-125970380D01*
%TO.C,R9*%
X101371833Y-119959380D02*
X101038500Y-119483190D01*
X100800405Y-119959380D02*
X100800405Y-118959380D01*
X100800405Y-118959380D02*
X101181357Y-118959380D01*
X101181357Y-118959380D02*
X101276595Y-119007000D01*
X101276595Y-119007000D02*
X101324214Y-119054619D01*
X101324214Y-119054619D02*
X101371833Y-119149857D01*
X101371833Y-119149857D02*
X101371833Y-119292714D01*
X101371833Y-119292714D02*
X101324214Y-119387952D01*
X101324214Y-119387952D02*
X101276595Y-119435571D01*
X101276595Y-119435571D02*
X101181357Y-119483190D01*
X101181357Y-119483190D02*
X100800405Y-119483190D01*
X101848024Y-119959380D02*
X102038500Y-119959380D01*
X102038500Y-119959380D02*
X102133738Y-119911761D01*
X102133738Y-119911761D02*
X102181357Y-119864142D01*
X102181357Y-119864142D02*
X102276595Y-119721285D01*
X102276595Y-119721285D02*
X102324214Y-119530809D01*
X102324214Y-119530809D02*
X102324214Y-119149857D01*
X102324214Y-119149857D02*
X102276595Y-119054619D01*
X102276595Y-119054619D02*
X102228976Y-119007000D01*
X102228976Y-119007000D02*
X102133738Y-118959380D01*
X102133738Y-118959380D02*
X101943262Y-118959380D01*
X101943262Y-118959380D02*
X101848024Y-119007000D01*
X101848024Y-119007000D02*
X101800405Y-119054619D01*
X101800405Y-119054619D02*
X101752786Y-119149857D01*
X101752786Y-119149857D02*
X101752786Y-119387952D01*
X101752786Y-119387952D02*
X101800405Y-119483190D01*
X101800405Y-119483190D02*
X101848024Y-119530809D01*
X101848024Y-119530809D02*
X101943262Y-119578428D01*
X101943262Y-119578428D02*
X102133738Y-119578428D01*
X102133738Y-119578428D02*
X102228976Y-119530809D01*
X102228976Y-119530809D02*
X102276595Y-119483190D01*
X102276595Y-119483190D02*
X102324214Y-119387952D01*
%TO.C,BT1*%
X175891571Y-80695714D02*
X175939190Y-80552857D01*
X175939190Y-80552857D02*
X175986809Y-80505238D01*
X175986809Y-80505238D02*
X176082047Y-80457619D01*
X176082047Y-80457619D02*
X176224904Y-80457619D01*
X176224904Y-80457619D02*
X176320142Y-80505238D01*
X176320142Y-80505238D02*
X176367761Y-80552857D01*
X176367761Y-80552857D02*
X176415380Y-80648095D01*
X176415380Y-80648095D02*
X176415380Y-81029047D01*
X176415380Y-81029047D02*
X175415380Y-81029047D01*
X175415380Y-81029047D02*
X175415380Y-80695714D01*
X175415380Y-80695714D02*
X175463000Y-80600476D01*
X175463000Y-80600476D02*
X175510619Y-80552857D01*
X175510619Y-80552857D02*
X175605857Y-80505238D01*
X175605857Y-80505238D02*
X175701095Y-80505238D01*
X175701095Y-80505238D02*
X175796333Y-80552857D01*
X175796333Y-80552857D02*
X175843952Y-80600476D01*
X175843952Y-80600476D02*
X175891571Y-80695714D01*
X175891571Y-80695714D02*
X175891571Y-81029047D01*
X175415380Y-80171904D02*
X175415380Y-79600476D01*
X176415380Y-79886190D02*
X175415380Y-79886190D01*
X176415380Y-78743333D02*
X176415380Y-79314761D01*
X176415380Y-79029047D02*
X175415380Y-79029047D01*
X175415380Y-79029047D02*
X175558238Y-79124285D01*
X175558238Y-79124285D02*
X175653476Y-79219523D01*
X175653476Y-79219523D02*
X175701095Y-79314761D01*
%TO.C,D5*%
X143406905Y-80250380D02*
X143406905Y-79250380D01*
X143406905Y-79250380D02*
X143645000Y-79250380D01*
X143645000Y-79250380D02*
X143787857Y-79298000D01*
X143787857Y-79298000D02*
X143883095Y-79393238D01*
X143883095Y-79393238D02*
X143930714Y-79488476D01*
X143930714Y-79488476D02*
X143978333Y-79678952D01*
X143978333Y-79678952D02*
X143978333Y-79821809D01*
X143978333Y-79821809D02*
X143930714Y-80012285D01*
X143930714Y-80012285D02*
X143883095Y-80107523D01*
X143883095Y-80107523D02*
X143787857Y-80202761D01*
X143787857Y-80202761D02*
X143645000Y-80250380D01*
X143645000Y-80250380D02*
X143406905Y-80250380D01*
X144883095Y-79250380D02*
X144406905Y-79250380D01*
X144406905Y-79250380D02*
X144359286Y-79726571D01*
X144359286Y-79726571D02*
X144406905Y-79678952D01*
X144406905Y-79678952D02*
X144502143Y-79631333D01*
X144502143Y-79631333D02*
X144740238Y-79631333D01*
X144740238Y-79631333D02*
X144835476Y-79678952D01*
X144835476Y-79678952D02*
X144883095Y-79726571D01*
X144883095Y-79726571D02*
X144930714Y-79821809D01*
X144930714Y-79821809D02*
X144930714Y-80059904D01*
X144930714Y-80059904D02*
X144883095Y-80155142D01*
X144883095Y-80155142D02*
X144835476Y-80202761D01*
X144835476Y-80202761D02*
X144740238Y-80250380D01*
X144740238Y-80250380D02*
X144502143Y-80250380D01*
X144502143Y-80250380D02*
X144406905Y-80202761D01*
X144406905Y-80202761D02*
X144359286Y-80155142D01*
%TO.C,R4*%
X148745380Y-105703666D02*
X148269190Y-106036999D01*
X148745380Y-106275094D02*
X147745380Y-106275094D01*
X147745380Y-106275094D02*
X147745380Y-105894142D01*
X147745380Y-105894142D02*
X147793000Y-105798904D01*
X147793000Y-105798904D02*
X147840619Y-105751285D01*
X147840619Y-105751285D02*
X147935857Y-105703666D01*
X147935857Y-105703666D02*
X148078714Y-105703666D01*
X148078714Y-105703666D02*
X148173952Y-105751285D01*
X148173952Y-105751285D02*
X148221571Y-105798904D01*
X148221571Y-105798904D02*
X148269190Y-105894142D01*
X148269190Y-105894142D02*
X148269190Y-106275094D01*
X148078714Y-104846523D02*
X148745380Y-104846523D01*
X147697761Y-105084618D02*
X148412047Y-105322713D01*
X148412047Y-105322713D02*
X148412047Y-104703666D01*
%TO.C,Q2*%
X113206619Y-126873238D02*
X113159000Y-126968476D01*
X113159000Y-126968476D02*
X113063761Y-127063714D01*
X113063761Y-127063714D02*
X112920904Y-127206571D01*
X112920904Y-127206571D02*
X112873285Y-127301809D01*
X112873285Y-127301809D02*
X112873285Y-127397047D01*
X113111380Y-127349428D02*
X113063761Y-127444666D01*
X113063761Y-127444666D02*
X112968523Y-127539904D01*
X112968523Y-127539904D02*
X112778047Y-127587523D01*
X112778047Y-127587523D02*
X112444714Y-127587523D01*
X112444714Y-127587523D02*
X112254238Y-127539904D01*
X112254238Y-127539904D02*
X112159000Y-127444666D01*
X112159000Y-127444666D02*
X112111380Y-127349428D01*
X112111380Y-127349428D02*
X112111380Y-127158952D01*
X112111380Y-127158952D02*
X112159000Y-127063714D01*
X112159000Y-127063714D02*
X112254238Y-126968476D01*
X112254238Y-126968476D02*
X112444714Y-126920857D01*
X112444714Y-126920857D02*
X112778047Y-126920857D01*
X112778047Y-126920857D02*
X112968523Y-126968476D01*
X112968523Y-126968476D02*
X113063761Y-127063714D01*
X113063761Y-127063714D02*
X113111380Y-127158952D01*
X113111380Y-127158952D02*
X113111380Y-127349428D01*
X112206619Y-126539904D02*
X112159000Y-126492285D01*
X112159000Y-126492285D02*
X112111380Y-126397047D01*
X112111380Y-126397047D02*
X112111380Y-126158952D01*
X112111380Y-126158952D02*
X112159000Y-126063714D01*
X112159000Y-126063714D02*
X112206619Y-126016095D01*
X112206619Y-126016095D02*
X112301857Y-125968476D01*
X112301857Y-125968476D02*
X112397095Y-125968476D01*
X112397095Y-125968476D02*
X112539952Y-126016095D01*
X112539952Y-126016095D02*
X113111380Y-126587523D01*
X113111380Y-126587523D02*
X113111380Y-125968476D01*
%TO.C,R7*%
X116022380Y-133718666D02*
X115546190Y-134051999D01*
X116022380Y-134290094D02*
X115022380Y-134290094D01*
X115022380Y-134290094D02*
X115022380Y-133909142D01*
X115022380Y-133909142D02*
X115070000Y-133813904D01*
X115070000Y-133813904D02*
X115117619Y-133766285D01*
X115117619Y-133766285D02*
X115212857Y-133718666D01*
X115212857Y-133718666D02*
X115355714Y-133718666D01*
X115355714Y-133718666D02*
X115450952Y-133766285D01*
X115450952Y-133766285D02*
X115498571Y-133813904D01*
X115498571Y-133813904D02*
X115546190Y-133909142D01*
X115546190Y-133909142D02*
X115546190Y-134290094D01*
X115022380Y-133385332D02*
X115022380Y-132718666D01*
X115022380Y-132718666D02*
X116022380Y-133147237D01*
%TO.C,C3*%
X153997142Y-128358666D02*
X154044761Y-128406285D01*
X154044761Y-128406285D02*
X154092380Y-128549142D01*
X154092380Y-128549142D02*
X154092380Y-128644380D01*
X154092380Y-128644380D02*
X154044761Y-128787237D01*
X154044761Y-128787237D02*
X153949523Y-128882475D01*
X153949523Y-128882475D02*
X153854285Y-128930094D01*
X153854285Y-128930094D02*
X153663809Y-128977713D01*
X153663809Y-128977713D02*
X153520952Y-128977713D01*
X153520952Y-128977713D02*
X153330476Y-128930094D01*
X153330476Y-128930094D02*
X153235238Y-128882475D01*
X153235238Y-128882475D02*
X153140000Y-128787237D01*
X153140000Y-128787237D02*
X153092380Y-128644380D01*
X153092380Y-128644380D02*
X153092380Y-128549142D01*
X153092380Y-128549142D02*
X153140000Y-128406285D01*
X153140000Y-128406285D02*
X153187619Y-128358666D01*
X153092380Y-128025332D02*
X153092380Y-127406285D01*
X153092380Y-127406285D02*
X153473333Y-127739618D01*
X153473333Y-127739618D02*
X153473333Y-127596761D01*
X153473333Y-127596761D02*
X153520952Y-127501523D01*
X153520952Y-127501523D02*
X153568571Y-127453904D01*
X153568571Y-127453904D02*
X153663809Y-127406285D01*
X153663809Y-127406285D02*
X153901904Y-127406285D01*
X153901904Y-127406285D02*
X153997142Y-127453904D01*
X153997142Y-127453904D02*
X154044761Y-127501523D01*
X154044761Y-127501523D02*
X154092380Y-127596761D01*
X154092380Y-127596761D02*
X154092380Y-127882475D01*
X154092380Y-127882475D02*
X154044761Y-127977713D01*
X154044761Y-127977713D02*
X153997142Y-128025332D01*
%TO.C,U7*%
X156417380Y-63934404D02*
X157226904Y-63934404D01*
X157226904Y-63934404D02*
X157322142Y-63886785D01*
X157322142Y-63886785D02*
X157369761Y-63839166D01*
X157369761Y-63839166D02*
X157417380Y-63743928D01*
X157417380Y-63743928D02*
X157417380Y-63553452D01*
X157417380Y-63553452D02*
X157369761Y-63458214D01*
X157369761Y-63458214D02*
X157322142Y-63410595D01*
X157322142Y-63410595D02*
X157226904Y-63362976D01*
X157226904Y-63362976D02*
X156417380Y-63362976D01*
X156417380Y-62982023D02*
X156417380Y-62315357D01*
X156417380Y-62315357D02*
X157417380Y-62743928D01*
%TO.C,R17*%
X162673380Y-51061857D02*
X162197190Y-51395190D01*
X162673380Y-51633285D02*
X161673380Y-51633285D01*
X161673380Y-51633285D02*
X161673380Y-51252333D01*
X161673380Y-51252333D02*
X161721000Y-51157095D01*
X161721000Y-51157095D02*
X161768619Y-51109476D01*
X161768619Y-51109476D02*
X161863857Y-51061857D01*
X161863857Y-51061857D02*
X162006714Y-51061857D01*
X162006714Y-51061857D02*
X162101952Y-51109476D01*
X162101952Y-51109476D02*
X162149571Y-51157095D01*
X162149571Y-51157095D02*
X162197190Y-51252333D01*
X162197190Y-51252333D02*
X162197190Y-51633285D01*
X162673380Y-50109476D02*
X162673380Y-50680904D01*
X162673380Y-50395190D02*
X161673380Y-50395190D01*
X161673380Y-50395190D02*
X161816238Y-50490428D01*
X161816238Y-50490428D02*
X161911476Y-50585666D01*
X161911476Y-50585666D02*
X161959095Y-50680904D01*
X161673380Y-49776142D02*
X161673380Y-49109476D01*
X161673380Y-49109476D02*
X162673380Y-49538047D01*
%TO.C,R22*%
X162037380Y-84843857D02*
X161561190Y-85177190D01*
X162037380Y-85415285D02*
X161037380Y-85415285D01*
X161037380Y-85415285D02*
X161037380Y-85034333D01*
X161037380Y-85034333D02*
X161085000Y-84939095D01*
X161085000Y-84939095D02*
X161132619Y-84891476D01*
X161132619Y-84891476D02*
X161227857Y-84843857D01*
X161227857Y-84843857D02*
X161370714Y-84843857D01*
X161370714Y-84843857D02*
X161465952Y-84891476D01*
X161465952Y-84891476D02*
X161513571Y-84939095D01*
X161513571Y-84939095D02*
X161561190Y-85034333D01*
X161561190Y-85034333D02*
X161561190Y-85415285D01*
X161132619Y-84462904D02*
X161085000Y-84415285D01*
X161085000Y-84415285D02*
X161037380Y-84320047D01*
X161037380Y-84320047D02*
X161037380Y-84081952D01*
X161037380Y-84081952D02*
X161085000Y-83986714D01*
X161085000Y-83986714D02*
X161132619Y-83939095D01*
X161132619Y-83939095D02*
X161227857Y-83891476D01*
X161227857Y-83891476D02*
X161323095Y-83891476D01*
X161323095Y-83891476D02*
X161465952Y-83939095D01*
X161465952Y-83939095D02*
X162037380Y-84510523D01*
X162037380Y-84510523D02*
X162037380Y-83891476D01*
X161132619Y-83510523D02*
X161085000Y-83462904D01*
X161085000Y-83462904D02*
X161037380Y-83367666D01*
X161037380Y-83367666D02*
X161037380Y-83129571D01*
X161037380Y-83129571D02*
X161085000Y-83034333D01*
X161085000Y-83034333D02*
X161132619Y-82986714D01*
X161132619Y-82986714D02*
X161227857Y-82939095D01*
X161227857Y-82939095D02*
X161323095Y-82939095D01*
X161323095Y-82939095D02*
X161465952Y-82986714D01*
X161465952Y-82986714D02*
X162037380Y-83558142D01*
X162037380Y-83558142D02*
X162037380Y-82939095D01*
%TO.C,Q4*%
X154894619Y-134334238D02*
X154847000Y-134429476D01*
X154847000Y-134429476D02*
X154751761Y-134524714D01*
X154751761Y-134524714D02*
X154608904Y-134667571D01*
X154608904Y-134667571D02*
X154561285Y-134762809D01*
X154561285Y-134762809D02*
X154561285Y-134858047D01*
X154799380Y-134810428D02*
X154751761Y-134905666D01*
X154751761Y-134905666D02*
X154656523Y-135000904D01*
X154656523Y-135000904D02*
X154466047Y-135048523D01*
X154466047Y-135048523D02*
X154132714Y-135048523D01*
X154132714Y-135048523D02*
X153942238Y-135000904D01*
X153942238Y-135000904D02*
X153847000Y-134905666D01*
X153847000Y-134905666D02*
X153799380Y-134810428D01*
X153799380Y-134810428D02*
X153799380Y-134619952D01*
X153799380Y-134619952D02*
X153847000Y-134524714D01*
X153847000Y-134524714D02*
X153942238Y-134429476D01*
X153942238Y-134429476D02*
X154132714Y-134381857D01*
X154132714Y-134381857D02*
X154466047Y-134381857D01*
X154466047Y-134381857D02*
X154656523Y-134429476D01*
X154656523Y-134429476D02*
X154751761Y-134524714D01*
X154751761Y-134524714D02*
X154799380Y-134619952D01*
X154799380Y-134619952D02*
X154799380Y-134810428D01*
X154132714Y-133524714D02*
X154799380Y-133524714D01*
X153751761Y-133762809D02*
X154466047Y-134000904D01*
X154466047Y-134000904D02*
X154466047Y-133381857D01*
%TO.C,C10*%
X142385142Y-75445857D02*
X142432761Y-75493476D01*
X142432761Y-75493476D02*
X142480380Y-75636333D01*
X142480380Y-75636333D02*
X142480380Y-75731571D01*
X142480380Y-75731571D02*
X142432761Y-75874428D01*
X142432761Y-75874428D02*
X142337523Y-75969666D01*
X142337523Y-75969666D02*
X142242285Y-76017285D01*
X142242285Y-76017285D02*
X142051809Y-76064904D01*
X142051809Y-76064904D02*
X141908952Y-76064904D01*
X141908952Y-76064904D02*
X141718476Y-76017285D01*
X141718476Y-76017285D02*
X141623238Y-75969666D01*
X141623238Y-75969666D02*
X141528000Y-75874428D01*
X141528000Y-75874428D02*
X141480380Y-75731571D01*
X141480380Y-75731571D02*
X141480380Y-75636333D01*
X141480380Y-75636333D02*
X141528000Y-75493476D01*
X141528000Y-75493476D02*
X141575619Y-75445857D01*
X142480380Y-74493476D02*
X142480380Y-75064904D01*
X142480380Y-74779190D02*
X141480380Y-74779190D01*
X141480380Y-74779190D02*
X141623238Y-74874428D01*
X141623238Y-74874428D02*
X141718476Y-74969666D01*
X141718476Y-74969666D02*
X141766095Y-75064904D01*
X141480380Y-73874428D02*
X141480380Y-73779190D01*
X141480380Y-73779190D02*
X141528000Y-73683952D01*
X141528000Y-73683952D02*
X141575619Y-73636333D01*
X141575619Y-73636333D02*
X141670857Y-73588714D01*
X141670857Y-73588714D02*
X141861333Y-73541095D01*
X141861333Y-73541095D02*
X142099428Y-73541095D01*
X142099428Y-73541095D02*
X142289904Y-73588714D01*
X142289904Y-73588714D02*
X142385142Y-73636333D01*
X142385142Y-73636333D02*
X142432761Y-73683952D01*
X142432761Y-73683952D02*
X142480380Y-73779190D01*
X142480380Y-73779190D02*
X142480380Y-73874428D01*
X142480380Y-73874428D02*
X142432761Y-73969666D01*
X142432761Y-73969666D02*
X142385142Y-74017285D01*
X142385142Y-74017285D02*
X142289904Y-74064904D01*
X142289904Y-74064904D02*
X142099428Y-74112523D01*
X142099428Y-74112523D02*
X141861333Y-74112523D01*
X141861333Y-74112523D02*
X141670857Y-74064904D01*
X141670857Y-74064904D02*
X141575619Y-74017285D01*
X141575619Y-74017285D02*
X141528000Y-73969666D01*
X141528000Y-73969666D02*
X141480380Y-73874428D01*
%TO.C,R19*%
X139057142Y-83933380D02*
X138723809Y-83457190D01*
X138485714Y-83933380D02*
X138485714Y-82933380D01*
X138485714Y-82933380D02*
X138866666Y-82933380D01*
X138866666Y-82933380D02*
X138961904Y-82981000D01*
X138961904Y-82981000D02*
X139009523Y-83028619D01*
X139009523Y-83028619D02*
X139057142Y-83123857D01*
X139057142Y-83123857D02*
X139057142Y-83266714D01*
X139057142Y-83266714D02*
X139009523Y-83361952D01*
X139009523Y-83361952D02*
X138961904Y-83409571D01*
X138961904Y-83409571D02*
X138866666Y-83457190D01*
X138866666Y-83457190D02*
X138485714Y-83457190D01*
X140009523Y-83933380D02*
X139438095Y-83933380D01*
X139723809Y-83933380D02*
X139723809Y-82933380D01*
X139723809Y-82933380D02*
X139628571Y-83076238D01*
X139628571Y-83076238D02*
X139533333Y-83171476D01*
X139533333Y-83171476D02*
X139438095Y-83219095D01*
X140485714Y-83933380D02*
X140676190Y-83933380D01*
X140676190Y-83933380D02*
X140771428Y-83885761D01*
X140771428Y-83885761D02*
X140819047Y-83838142D01*
X140819047Y-83838142D02*
X140914285Y-83695285D01*
X140914285Y-83695285D02*
X140961904Y-83504809D01*
X140961904Y-83504809D02*
X140961904Y-83123857D01*
X140961904Y-83123857D02*
X140914285Y-83028619D01*
X140914285Y-83028619D02*
X140866666Y-82981000D01*
X140866666Y-82981000D02*
X140771428Y-82933380D01*
X140771428Y-82933380D02*
X140580952Y-82933380D01*
X140580952Y-82933380D02*
X140485714Y-82981000D01*
X140485714Y-82981000D02*
X140438095Y-83028619D01*
X140438095Y-83028619D02*
X140390476Y-83123857D01*
X140390476Y-83123857D02*
X140390476Y-83361952D01*
X140390476Y-83361952D02*
X140438095Y-83457190D01*
X140438095Y-83457190D02*
X140485714Y-83504809D01*
X140485714Y-83504809D02*
X140580952Y-83552428D01*
X140580952Y-83552428D02*
X140771428Y-83552428D01*
X140771428Y-83552428D02*
X140866666Y-83504809D01*
X140866666Y-83504809D02*
X140914285Y-83457190D01*
X140914285Y-83457190D02*
X140961904Y-83361952D01*
%TO.C,D1*%
X120891380Y-134850094D02*
X119891380Y-134850094D01*
X119891380Y-134850094D02*
X119891380Y-134611999D01*
X119891380Y-134611999D02*
X119939000Y-134469142D01*
X119939000Y-134469142D02*
X120034238Y-134373904D01*
X120034238Y-134373904D02*
X120129476Y-134326285D01*
X120129476Y-134326285D02*
X120319952Y-134278666D01*
X120319952Y-134278666D02*
X120462809Y-134278666D01*
X120462809Y-134278666D02*
X120653285Y-134326285D01*
X120653285Y-134326285D02*
X120748523Y-134373904D01*
X120748523Y-134373904D02*
X120843761Y-134469142D01*
X120843761Y-134469142D02*
X120891380Y-134611999D01*
X120891380Y-134611999D02*
X120891380Y-134850094D01*
X120891380Y-133326285D02*
X120891380Y-133897713D01*
X120891380Y-133611999D02*
X119891380Y-133611999D01*
X119891380Y-133611999D02*
X120034238Y-133707237D01*
X120034238Y-133707237D02*
X120129476Y-133802475D01*
X120129476Y-133802475D02*
X120177095Y-133897713D01*
%TO.C,R2*%
X129822380Y-97637166D02*
X129346190Y-97970499D01*
X129822380Y-98208594D02*
X128822380Y-98208594D01*
X128822380Y-98208594D02*
X128822380Y-97827642D01*
X128822380Y-97827642D02*
X128870000Y-97732404D01*
X128870000Y-97732404D02*
X128917619Y-97684785D01*
X128917619Y-97684785D02*
X129012857Y-97637166D01*
X129012857Y-97637166D02*
X129155714Y-97637166D01*
X129155714Y-97637166D02*
X129250952Y-97684785D01*
X129250952Y-97684785D02*
X129298571Y-97732404D01*
X129298571Y-97732404D02*
X129346190Y-97827642D01*
X129346190Y-97827642D02*
X129346190Y-98208594D01*
X128917619Y-97256213D02*
X128870000Y-97208594D01*
X128870000Y-97208594D02*
X128822380Y-97113356D01*
X128822380Y-97113356D02*
X128822380Y-96875261D01*
X128822380Y-96875261D02*
X128870000Y-96780023D01*
X128870000Y-96780023D02*
X128917619Y-96732404D01*
X128917619Y-96732404D02*
X129012857Y-96684785D01*
X129012857Y-96684785D02*
X129108095Y-96684785D01*
X129108095Y-96684785D02*
X129250952Y-96732404D01*
X129250952Y-96732404D02*
X129822380Y-97303832D01*
X129822380Y-97303832D02*
X129822380Y-96684785D01*
%TO.C,R15*%
X159143380Y-51188857D02*
X158667190Y-51522190D01*
X159143380Y-51760285D02*
X158143380Y-51760285D01*
X158143380Y-51760285D02*
X158143380Y-51379333D01*
X158143380Y-51379333D02*
X158191000Y-51284095D01*
X158191000Y-51284095D02*
X158238619Y-51236476D01*
X158238619Y-51236476D02*
X158333857Y-51188857D01*
X158333857Y-51188857D02*
X158476714Y-51188857D01*
X158476714Y-51188857D02*
X158571952Y-51236476D01*
X158571952Y-51236476D02*
X158619571Y-51284095D01*
X158619571Y-51284095D02*
X158667190Y-51379333D01*
X158667190Y-51379333D02*
X158667190Y-51760285D01*
X159143380Y-50236476D02*
X159143380Y-50807904D01*
X159143380Y-50522190D02*
X158143380Y-50522190D01*
X158143380Y-50522190D02*
X158286238Y-50617428D01*
X158286238Y-50617428D02*
X158381476Y-50712666D01*
X158381476Y-50712666D02*
X158429095Y-50807904D01*
X158143380Y-49331714D02*
X158143380Y-49807904D01*
X158143380Y-49807904D02*
X158619571Y-49855523D01*
X158619571Y-49855523D02*
X158571952Y-49807904D01*
X158571952Y-49807904D02*
X158524333Y-49712666D01*
X158524333Y-49712666D02*
X158524333Y-49474571D01*
X158524333Y-49474571D02*
X158571952Y-49379333D01*
X158571952Y-49379333D02*
X158619571Y-49331714D01*
X158619571Y-49331714D02*
X158714809Y-49284095D01*
X158714809Y-49284095D02*
X158952904Y-49284095D01*
X158952904Y-49284095D02*
X159048142Y-49331714D01*
X159048142Y-49331714D02*
X159095761Y-49379333D01*
X159095761Y-49379333D02*
X159143380Y-49474571D01*
X159143380Y-49474571D02*
X159143380Y-49712666D01*
X159143380Y-49712666D02*
X159095761Y-49807904D01*
X159095761Y-49807904D02*
X159048142Y-49855523D01*
%TO.C,R18*%
X139057142Y-80292380D02*
X138723809Y-79816190D01*
X138485714Y-80292380D02*
X138485714Y-79292380D01*
X138485714Y-79292380D02*
X138866666Y-79292380D01*
X138866666Y-79292380D02*
X138961904Y-79340000D01*
X138961904Y-79340000D02*
X139009523Y-79387619D01*
X139009523Y-79387619D02*
X139057142Y-79482857D01*
X139057142Y-79482857D02*
X139057142Y-79625714D01*
X139057142Y-79625714D02*
X139009523Y-79720952D01*
X139009523Y-79720952D02*
X138961904Y-79768571D01*
X138961904Y-79768571D02*
X138866666Y-79816190D01*
X138866666Y-79816190D02*
X138485714Y-79816190D01*
X140009523Y-80292380D02*
X139438095Y-80292380D01*
X139723809Y-80292380D02*
X139723809Y-79292380D01*
X139723809Y-79292380D02*
X139628571Y-79435238D01*
X139628571Y-79435238D02*
X139533333Y-79530476D01*
X139533333Y-79530476D02*
X139438095Y-79578095D01*
X140580952Y-79720952D02*
X140485714Y-79673333D01*
X140485714Y-79673333D02*
X140438095Y-79625714D01*
X140438095Y-79625714D02*
X140390476Y-79530476D01*
X140390476Y-79530476D02*
X140390476Y-79482857D01*
X140390476Y-79482857D02*
X140438095Y-79387619D01*
X140438095Y-79387619D02*
X140485714Y-79340000D01*
X140485714Y-79340000D02*
X140580952Y-79292380D01*
X140580952Y-79292380D02*
X140771428Y-79292380D01*
X140771428Y-79292380D02*
X140866666Y-79340000D01*
X140866666Y-79340000D02*
X140914285Y-79387619D01*
X140914285Y-79387619D02*
X140961904Y-79482857D01*
X140961904Y-79482857D02*
X140961904Y-79530476D01*
X140961904Y-79530476D02*
X140914285Y-79625714D01*
X140914285Y-79625714D02*
X140866666Y-79673333D01*
X140866666Y-79673333D02*
X140771428Y-79720952D01*
X140771428Y-79720952D02*
X140580952Y-79720952D01*
X140580952Y-79720952D02*
X140485714Y-79768571D01*
X140485714Y-79768571D02*
X140438095Y-79816190D01*
X140438095Y-79816190D02*
X140390476Y-79911428D01*
X140390476Y-79911428D02*
X140390476Y-80101904D01*
X140390476Y-80101904D02*
X140438095Y-80197142D01*
X140438095Y-80197142D02*
X140485714Y-80244761D01*
X140485714Y-80244761D02*
X140580952Y-80292380D01*
X140580952Y-80292380D02*
X140771428Y-80292380D01*
X140771428Y-80292380D02*
X140866666Y-80244761D01*
X140866666Y-80244761D02*
X140914285Y-80197142D01*
X140914285Y-80197142D02*
X140961904Y-80101904D01*
X140961904Y-80101904D02*
X140961904Y-79911428D01*
X140961904Y-79911428D02*
X140914285Y-79816190D01*
X140914285Y-79816190D02*
X140866666Y-79768571D01*
X140866666Y-79768571D02*
X140771428Y-79720952D01*
%TO.C,R11*%
X156837142Y-137823380D02*
X156503809Y-137347190D01*
X156265714Y-137823380D02*
X156265714Y-136823380D01*
X156265714Y-136823380D02*
X156646666Y-136823380D01*
X156646666Y-136823380D02*
X156741904Y-136871000D01*
X156741904Y-136871000D02*
X156789523Y-136918619D01*
X156789523Y-136918619D02*
X156837142Y-137013857D01*
X156837142Y-137013857D02*
X156837142Y-137156714D01*
X156837142Y-137156714D02*
X156789523Y-137251952D01*
X156789523Y-137251952D02*
X156741904Y-137299571D01*
X156741904Y-137299571D02*
X156646666Y-137347190D01*
X156646666Y-137347190D02*
X156265714Y-137347190D01*
X157789523Y-137823380D02*
X157218095Y-137823380D01*
X157503809Y-137823380D02*
X157503809Y-136823380D01*
X157503809Y-136823380D02*
X157408571Y-136966238D01*
X157408571Y-136966238D02*
X157313333Y-137061476D01*
X157313333Y-137061476D02*
X157218095Y-137109095D01*
X158741904Y-137823380D02*
X158170476Y-137823380D01*
X158456190Y-137823380D02*
X158456190Y-136823380D01*
X158456190Y-136823380D02*
X158360952Y-136966238D01*
X158360952Y-136966238D02*
X158265714Y-137061476D01*
X158265714Y-137061476D02*
X158170476Y-137109095D01*
%TO.C,D2*%
X108191380Y-134850094D02*
X107191380Y-134850094D01*
X107191380Y-134850094D02*
X107191380Y-134611999D01*
X107191380Y-134611999D02*
X107239000Y-134469142D01*
X107239000Y-134469142D02*
X107334238Y-134373904D01*
X107334238Y-134373904D02*
X107429476Y-134326285D01*
X107429476Y-134326285D02*
X107619952Y-134278666D01*
X107619952Y-134278666D02*
X107762809Y-134278666D01*
X107762809Y-134278666D02*
X107953285Y-134326285D01*
X107953285Y-134326285D02*
X108048523Y-134373904D01*
X108048523Y-134373904D02*
X108143761Y-134469142D01*
X108143761Y-134469142D02*
X108191380Y-134611999D01*
X108191380Y-134611999D02*
X108191380Y-134850094D01*
X107286619Y-133897713D02*
X107239000Y-133850094D01*
X107239000Y-133850094D02*
X107191380Y-133754856D01*
X107191380Y-133754856D02*
X107191380Y-133516761D01*
X107191380Y-133516761D02*
X107239000Y-133421523D01*
X107239000Y-133421523D02*
X107286619Y-133373904D01*
X107286619Y-133373904D02*
X107381857Y-133326285D01*
X107381857Y-133326285D02*
X107477095Y-133326285D01*
X107477095Y-133326285D02*
X107619952Y-133373904D01*
X107619952Y-133373904D02*
X108191380Y-133945332D01*
X108191380Y-133945332D02*
X108191380Y-133326285D01*
%TO.C,R10*%
X164620380Y-128759857D02*
X164144190Y-129093190D01*
X164620380Y-129331285D02*
X163620380Y-129331285D01*
X163620380Y-129331285D02*
X163620380Y-128950333D01*
X163620380Y-128950333D02*
X163668000Y-128855095D01*
X163668000Y-128855095D02*
X163715619Y-128807476D01*
X163715619Y-128807476D02*
X163810857Y-128759857D01*
X163810857Y-128759857D02*
X163953714Y-128759857D01*
X163953714Y-128759857D02*
X164048952Y-128807476D01*
X164048952Y-128807476D02*
X164096571Y-128855095D01*
X164096571Y-128855095D02*
X164144190Y-128950333D01*
X164144190Y-128950333D02*
X164144190Y-129331285D01*
X164620380Y-127807476D02*
X164620380Y-128378904D01*
X164620380Y-128093190D02*
X163620380Y-128093190D01*
X163620380Y-128093190D02*
X163763238Y-128188428D01*
X163763238Y-128188428D02*
X163858476Y-128283666D01*
X163858476Y-128283666D02*
X163906095Y-128378904D01*
X163620380Y-127188428D02*
X163620380Y-127093190D01*
X163620380Y-127093190D02*
X163668000Y-126997952D01*
X163668000Y-126997952D02*
X163715619Y-126950333D01*
X163715619Y-126950333D02*
X163810857Y-126902714D01*
X163810857Y-126902714D02*
X164001333Y-126855095D01*
X164001333Y-126855095D02*
X164239428Y-126855095D01*
X164239428Y-126855095D02*
X164429904Y-126902714D01*
X164429904Y-126902714D02*
X164525142Y-126950333D01*
X164525142Y-126950333D02*
X164572761Y-126997952D01*
X164572761Y-126997952D02*
X164620380Y-127093190D01*
X164620380Y-127093190D02*
X164620380Y-127188428D01*
X164620380Y-127188428D02*
X164572761Y-127283666D01*
X164572761Y-127283666D02*
X164525142Y-127331285D01*
X164525142Y-127331285D02*
X164429904Y-127378904D01*
X164429904Y-127378904D02*
X164239428Y-127426523D01*
X164239428Y-127426523D02*
X164001333Y-127426523D01*
X164001333Y-127426523D02*
X163810857Y-127378904D01*
X163810857Y-127378904D02*
X163715619Y-127331285D01*
X163715619Y-127331285D02*
X163668000Y-127283666D01*
X163668000Y-127283666D02*
X163620380Y-127188428D01*
%TO.C,R20*%
X153022380Y-84843857D02*
X152546190Y-85177190D01*
X153022380Y-85415285D02*
X152022380Y-85415285D01*
X152022380Y-85415285D02*
X152022380Y-85034333D01*
X152022380Y-85034333D02*
X152070000Y-84939095D01*
X152070000Y-84939095D02*
X152117619Y-84891476D01*
X152117619Y-84891476D02*
X152212857Y-84843857D01*
X152212857Y-84843857D02*
X152355714Y-84843857D01*
X152355714Y-84843857D02*
X152450952Y-84891476D01*
X152450952Y-84891476D02*
X152498571Y-84939095D01*
X152498571Y-84939095D02*
X152546190Y-85034333D01*
X152546190Y-85034333D02*
X152546190Y-85415285D01*
X152117619Y-84462904D02*
X152070000Y-84415285D01*
X152070000Y-84415285D02*
X152022380Y-84320047D01*
X152022380Y-84320047D02*
X152022380Y-84081952D01*
X152022380Y-84081952D02*
X152070000Y-83986714D01*
X152070000Y-83986714D02*
X152117619Y-83939095D01*
X152117619Y-83939095D02*
X152212857Y-83891476D01*
X152212857Y-83891476D02*
X152308095Y-83891476D01*
X152308095Y-83891476D02*
X152450952Y-83939095D01*
X152450952Y-83939095D02*
X153022380Y-84510523D01*
X153022380Y-84510523D02*
X153022380Y-83891476D01*
X152022380Y-83272428D02*
X152022380Y-83177190D01*
X152022380Y-83177190D02*
X152070000Y-83081952D01*
X152070000Y-83081952D02*
X152117619Y-83034333D01*
X152117619Y-83034333D02*
X152212857Y-82986714D01*
X152212857Y-82986714D02*
X152403333Y-82939095D01*
X152403333Y-82939095D02*
X152641428Y-82939095D01*
X152641428Y-82939095D02*
X152831904Y-82986714D01*
X152831904Y-82986714D02*
X152927142Y-83034333D01*
X152927142Y-83034333D02*
X152974761Y-83081952D01*
X152974761Y-83081952D02*
X153022380Y-83177190D01*
X153022380Y-83177190D02*
X153022380Y-83272428D01*
X153022380Y-83272428D02*
X152974761Y-83367666D01*
X152974761Y-83367666D02*
X152927142Y-83415285D01*
X152927142Y-83415285D02*
X152831904Y-83462904D01*
X152831904Y-83462904D02*
X152641428Y-83510523D01*
X152641428Y-83510523D02*
X152403333Y-83510523D01*
X152403333Y-83510523D02*
X152212857Y-83462904D01*
X152212857Y-83462904D02*
X152117619Y-83415285D01*
X152117619Y-83415285D02*
X152070000Y-83367666D01*
X152070000Y-83367666D02*
X152022380Y-83272428D01*
%TO.C,R21*%
X139920142Y-58448380D02*
X139586809Y-57972190D01*
X139348714Y-58448380D02*
X139348714Y-57448380D01*
X139348714Y-57448380D02*
X139729666Y-57448380D01*
X139729666Y-57448380D02*
X139824904Y-57496000D01*
X139824904Y-57496000D02*
X139872523Y-57543619D01*
X139872523Y-57543619D02*
X139920142Y-57638857D01*
X139920142Y-57638857D02*
X139920142Y-57781714D01*
X139920142Y-57781714D02*
X139872523Y-57876952D01*
X139872523Y-57876952D02*
X139824904Y-57924571D01*
X139824904Y-57924571D02*
X139729666Y-57972190D01*
X139729666Y-57972190D02*
X139348714Y-57972190D01*
X140301095Y-57543619D02*
X140348714Y-57496000D01*
X140348714Y-57496000D02*
X140443952Y-57448380D01*
X140443952Y-57448380D02*
X140682047Y-57448380D01*
X140682047Y-57448380D02*
X140777285Y-57496000D01*
X140777285Y-57496000D02*
X140824904Y-57543619D01*
X140824904Y-57543619D02*
X140872523Y-57638857D01*
X140872523Y-57638857D02*
X140872523Y-57734095D01*
X140872523Y-57734095D02*
X140824904Y-57876952D01*
X140824904Y-57876952D02*
X140253476Y-58448380D01*
X140253476Y-58448380D02*
X140872523Y-58448380D01*
X141824904Y-58448380D02*
X141253476Y-58448380D01*
X141539190Y-58448380D02*
X141539190Y-57448380D01*
X141539190Y-57448380D02*
X141443952Y-57591238D01*
X141443952Y-57591238D02*
X141348714Y-57686476D01*
X141348714Y-57686476D02*
X141253476Y-57734095D01*
%TO.C,U6*%
X146177095Y-52339380D02*
X146177095Y-53148904D01*
X146177095Y-53148904D02*
X146224714Y-53244142D01*
X146224714Y-53244142D02*
X146272333Y-53291761D01*
X146272333Y-53291761D02*
X146367571Y-53339380D01*
X146367571Y-53339380D02*
X146558047Y-53339380D01*
X146558047Y-53339380D02*
X146653285Y-53291761D01*
X146653285Y-53291761D02*
X146700904Y-53244142D01*
X146700904Y-53244142D02*
X146748523Y-53148904D01*
X146748523Y-53148904D02*
X146748523Y-52339380D01*
X147653285Y-52339380D02*
X147462809Y-52339380D01*
X147462809Y-52339380D02*
X147367571Y-52387000D01*
X147367571Y-52387000D02*
X147319952Y-52434619D01*
X147319952Y-52434619D02*
X147224714Y-52577476D01*
X147224714Y-52577476D02*
X147177095Y-52767952D01*
X147177095Y-52767952D02*
X147177095Y-53148904D01*
X147177095Y-53148904D02*
X147224714Y-53244142D01*
X147224714Y-53244142D02*
X147272333Y-53291761D01*
X147272333Y-53291761D02*
X147367571Y-53339380D01*
X147367571Y-53339380D02*
X147558047Y-53339380D01*
X147558047Y-53339380D02*
X147653285Y-53291761D01*
X147653285Y-53291761D02*
X147700904Y-53244142D01*
X147700904Y-53244142D02*
X147748523Y-53148904D01*
X147748523Y-53148904D02*
X147748523Y-52910809D01*
X147748523Y-52910809D02*
X147700904Y-52815571D01*
X147700904Y-52815571D02*
X147653285Y-52767952D01*
X147653285Y-52767952D02*
X147558047Y-52720333D01*
X147558047Y-52720333D02*
X147367571Y-52720333D01*
X147367571Y-52720333D02*
X147272333Y-52767952D01*
X147272333Y-52767952D02*
X147224714Y-52815571D01*
X147224714Y-52815571D02*
X147177095Y-52910809D01*
%TO.C,R5*%
X152428380Y-105703666D02*
X151952190Y-106036999D01*
X152428380Y-106275094D02*
X151428380Y-106275094D01*
X151428380Y-106275094D02*
X151428380Y-105894142D01*
X151428380Y-105894142D02*
X151476000Y-105798904D01*
X151476000Y-105798904D02*
X151523619Y-105751285D01*
X151523619Y-105751285D02*
X151618857Y-105703666D01*
X151618857Y-105703666D02*
X151761714Y-105703666D01*
X151761714Y-105703666D02*
X151856952Y-105751285D01*
X151856952Y-105751285D02*
X151904571Y-105798904D01*
X151904571Y-105798904D02*
X151952190Y-105894142D01*
X151952190Y-105894142D02*
X151952190Y-106275094D01*
X151428380Y-104798904D02*
X151428380Y-105275094D01*
X151428380Y-105275094D02*
X151904571Y-105322713D01*
X151904571Y-105322713D02*
X151856952Y-105275094D01*
X151856952Y-105275094D02*
X151809333Y-105179856D01*
X151809333Y-105179856D02*
X151809333Y-104941761D01*
X151809333Y-104941761D02*
X151856952Y-104846523D01*
X151856952Y-104846523D02*
X151904571Y-104798904D01*
X151904571Y-104798904D02*
X151999809Y-104751285D01*
X151999809Y-104751285D02*
X152237904Y-104751285D01*
X152237904Y-104751285D02*
X152333142Y-104798904D01*
X152333142Y-104798904D02*
X152380761Y-104846523D01*
X152380761Y-104846523D02*
X152428380Y-104941761D01*
X152428380Y-104941761D02*
X152428380Y-105179856D01*
X152428380Y-105179856D02*
X152380761Y-105275094D01*
X152380761Y-105275094D02*
X152333142Y-105322713D01*
%TO.C,R6*%
X101628380Y-75096666D02*
X101152190Y-75429999D01*
X101628380Y-75668094D02*
X100628380Y-75668094D01*
X100628380Y-75668094D02*
X100628380Y-75287142D01*
X100628380Y-75287142D02*
X100676000Y-75191904D01*
X100676000Y-75191904D02*
X100723619Y-75144285D01*
X100723619Y-75144285D02*
X100818857Y-75096666D01*
X100818857Y-75096666D02*
X100961714Y-75096666D01*
X100961714Y-75096666D02*
X101056952Y-75144285D01*
X101056952Y-75144285D02*
X101104571Y-75191904D01*
X101104571Y-75191904D02*
X101152190Y-75287142D01*
X101152190Y-75287142D02*
X101152190Y-75668094D01*
X100628380Y-74239523D02*
X100628380Y-74429999D01*
X100628380Y-74429999D02*
X100676000Y-74525237D01*
X100676000Y-74525237D02*
X100723619Y-74572856D01*
X100723619Y-74572856D02*
X100866476Y-74668094D01*
X100866476Y-74668094D02*
X101056952Y-74715713D01*
X101056952Y-74715713D02*
X101437904Y-74715713D01*
X101437904Y-74715713D02*
X101533142Y-74668094D01*
X101533142Y-74668094D02*
X101580761Y-74620475D01*
X101580761Y-74620475D02*
X101628380Y-74525237D01*
X101628380Y-74525237D02*
X101628380Y-74334761D01*
X101628380Y-74334761D02*
X101580761Y-74239523D01*
X101580761Y-74239523D02*
X101533142Y-74191904D01*
X101533142Y-74191904D02*
X101437904Y-74144285D01*
X101437904Y-74144285D02*
X101199809Y-74144285D01*
X101199809Y-74144285D02*
X101104571Y-74191904D01*
X101104571Y-74191904D02*
X101056952Y-74239523D01*
X101056952Y-74239523D02*
X101009333Y-74334761D01*
X101009333Y-74334761D02*
X101009333Y-74525237D01*
X101009333Y-74525237D02*
X101056952Y-74620475D01*
X101056952Y-74620475D02*
X101104571Y-74668094D01*
X101104571Y-74668094D02*
X101199809Y-74715713D01*
%TO.C,J1*%
X160994380Y-133429333D02*
X161708666Y-133429333D01*
X161708666Y-133429333D02*
X161851523Y-133476952D01*
X161851523Y-133476952D02*
X161946761Y-133572190D01*
X161946761Y-133572190D02*
X161994380Y-133715047D01*
X161994380Y-133715047D02*
X161994380Y-133810285D01*
X161994380Y-132429333D02*
X161994380Y-133000761D01*
X161994380Y-132715047D02*
X160994380Y-132715047D01*
X160994380Y-132715047D02*
X161137238Y-132810285D01*
X161137238Y-132810285D02*
X161232476Y-132905523D01*
X161232476Y-132905523D02*
X161280095Y-133000761D01*
%TO.C,R8*%
X104211380Y-133718666D02*
X103735190Y-134051999D01*
X104211380Y-134290094D02*
X103211380Y-134290094D01*
X103211380Y-134290094D02*
X103211380Y-133909142D01*
X103211380Y-133909142D02*
X103259000Y-133813904D01*
X103259000Y-133813904D02*
X103306619Y-133766285D01*
X103306619Y-133766285D02*
X103401857Y-133718666D01*
X103401857Y-133718666D02*
X103544714Y-133718666D01*
X103544714Y-133718666D02*
X103639952Y-133766285D01*
X103639952Y-133766285D02*
X103687571Y-133813904D01*
X103687571Y-133813904D02*
X103735190Y-133909142D01*
X103735190Y-133909142D02*
X103735190Y-134290094D01*
X103639952Y-133147237D02*
X103592333Y-133242475D01*
X103592333Y-133242475D02*
X103544714Y-133290094D01*
X103544714Y-133290094D02*
X103449476Y-133337713D01*
X103449476Y-133337713D02*
X103401857Y-133337713D01*
X103401857Y-133337713D02*
X103306619Y-133290094D01*
X103306619Y-133290094D02*
X103259000Y-133242475D01*
X103259000Y-133242475D02*
X103211380Y-133147237D01*
X103211380Y-133147237D02*
X103211380Y-132956761D01*
X103211380Y-132956761D02*
X103259000Y-132861523D01*
X103259000Y-132861523D02*
X103306619Y-132813904D01*
X103306619Y-132813904D02*
X103401857Y-132766285D01*
X103401857Y-132766285D02*
X103449476Y-132766285D01*
X103449476Y-132766285D02*
X103544714Y-132813904D01*
X103544714Y-132813904D02*
X103592333Y-132861523D01*
X103592333Y-132861523D02*
X103639952Y-132956761D01*
X103639952Y-132956761D02*
X103639952Y-133147237D01*
X103639952Y-133147237D02*
X103687571Y-133242475D01*
X103687571Y-133242475D02*
X103735190Y-133290094D01*
X103735190Y-133290094D02*
X103830428Y-133337713D01*
X103830428Y-133337713D02*
X104020904Y-133337713D01*
X104020904Y-133337713D02*
X104116142Y-133290094D01*
X104116142Y-133290094D02*
X104163761Y-133242475D01*
X104163761Y-133242475D02*
X104211380Y-133147237D01*
X104211380Y-133147237D02*
X104211380Y-132956761D01*
X104211380Y-132956761D02*
X104163761Y-132861523D01*
X104163761Y-132861523D02*
X104116142Y-132813904D01*
X104116142Y-132813904D02*
X104020904Y-132766285D01*
X104020904Y-132766285D02*
X103830428Y-132766285D01*
X103830428Y-132766285D02*
X103735190Y-132813904D01*
X103735190Y-132813904D02*
X103687571Y-132861523D01*
X103687571Y-132861523D02*
X103639952Y-132956761D01*
%TO.C,Q5*%
X145909619Y-47419238D02*
X145862000Y-47514476D01*
X145862000Y-47514476D02*
X145766761Y-47609714D01*
X145766761Y-47609714D02*
X145623904Y-47752571D01*
X145623904Y-47752571D02*
X145576285Y-47847809D01*
X145576285Y-47847809D02*
X145576285Y-47943047D01*
X145814380Y-47895428D02*
X145766761Y-47990666D01*
X145766761Y-47990666D02*
X145671523Y-48085904D01*
X145671523Y-48085904D02*
X145481047Y-48133523D01*
X145481047Y-48133523D02*
X145147714Y-48133523D01*
X145147714Y-48133523D02*
X144957238Y-48085904D01*
X144957238Y-48085904D02*
X144862000Y-47990666D01*
X144862000Y-47990666D02*
X144814380Y-47895428D01*
X144814380Y-47895428D02*
X144814380Y-47704952D01*
X144814380Y-47704952D02*
X144862000Y-47609714D01*
X144862000Y-47609714D02*
X144957238Y-47514476D01*
X144957238Y-47514476D02*
X145147714Y-47466857D01*
X145147714Y-47466857D02*
X145481047Y-47466857D01*
X145481047Y-47466857D02*
X145671523Y-47514476D01*
X145671523Y-47514476D02*
X145766761Y-47609714D01*
X145766761Y-47609714D02*
X145814380Y-47704952D01*
X145814380Y-47704952D02*
X145814380Y-47895428D01*
X144814380Y-46562095D02*
X144814380Y-47038285D01*
X144814380Y-47038285D02*
X145290571Y-47085904D01*
X145290571Y-47085904D02*
X145242952Y-47038285D01*
X145242952Y-47038285D02*
X145195333Y-46943047D01*
X145195333Y-46943047D02*
X145195333Y-46704952D01*
X145195333Y-46704952D02*
X145242952Y-46609714D01*
X145242952Y-46609714D02*
X145290571Y-46562095D01*
X145290571Y-46562095D02*
X145385809Y-46514476D01*
X145385809Y-46514476D02*
X145623904Y-46514476D01*
X145623904Y-46514476D02*
X145719142Y-46562095D01*
X145719142Y-46562095D02*
X145766761Y-46609714D01*
X145766761Y-46609714D02*
X145814380Y-46704952D01*
X145814380Y-46704952D02*
X145814380Y-46943047D01*
X145814380Y-46943047D02*
X145766761Y-47038285D01*
X145766761Y-47038285D02*
X145719142Y-47085904D01*
%TO.C,D8*%
X161022380Y-78716094D02*
X160022380Y-78716094D01*
X160022380Y-78716094D02*
X160022380Y-78477999D01*
X160022380Y-78477999D02*
X160070000Y-78335142D01*
X160070000Y-78335142D02*
X160165238Y-78239904D01*
X160165238Y-78239904D02*
X160260476Y-78192285D01*
X160260476Y-78192285D02*
X160450952Y-78144666D01*
X160450952Y-78144666D02*
X160593809Y-78144666D01*
X160593809Y-78144666D02*
X160784285Y-78192285D01*
X160784285Y-78192285D02*
X160879523Y-78239904D01*
X160879523Y-78239904D02*
X160974761Y-78335142D01*
X160974761Y-78335142D02*
X161022380Y-78477999D01*
X161022380Y-78477999D02*
X161022380Y-78716094D01*
X160450952Y-77573237D02*
X160403333Y-77668475D01*
X160403333Y-77668475D02*
X160355714Y-77716094D01*
X160355714Y-77716094D02*
X160260476Y-77763713D01*
X160260476Y-77763713D02*
X160212857Y-77763713D01*
X160212857Y-77763713D02*
X160117619Y-77716094D01*
X160117619Y-77716094D02*
X160070000Y-77668475D01*
X160070000Y-77668475D02*
X160022380Y-77573237D01*
X160022380Y-77573237D02*
X160022380Y-77382761D01*
X160022380Y-77382761D02*
X160070000Y-77287523D01*
X160070000Y-77287523D02*
X160117619Y-77239904D01*
X160117619Y-77239904D02*
X160212857Y-77192285D01*
X160212857Y-77192285D02*
X160260476Y-77192285D01*
X160260476Y-77192285D02*
X160355714Y-77239904D01*
X160355714Y-77239904D02*
X160403333Y-77287523D01*
X160403333Y-77287523D02*
X160450952Y-77382761D01*
X160450952Y-77382761D02*
X160450952Y-77573237D01*
X160450952Y-77573237D02*
X160498571Y-77668475D01*
X160498571Y-77668475D02*
X160546190Y-77716094D01*
X160546190Y-77716094D02*
X160641428Y-77763713D01*
X160641428Y-77763713D02*
X160831904Y-77763713D01*
X160831904Y-77763713D02*
X160927142Y-77716094D01*
X160927142Y-77716094D02*
X160974761Y-77668475D01*
X160974761Y-77668475D02*
X161022380Y-77573237D01*
X161022380Y-77573237D02*
X161022380Y-77382761D01*
X161022380Y-77382761D02*
X160974761Y-77287523D01*
X160974761Y-77287523D02*
X160927142Y-77239904D01*
X160927142Y-77239904D02*
X160831904Y-77192285D01*
X160831904Y-77192285D02*
X160641428Y-77192285D01*
X160641428Y-77192285D02*
X160546190Y-77239904D01*
X160546190Y-77239904D02*
X160498571Y-77287523D01*
X160498571Y-77287523D02*
X160450952Y-77382761D01*
%TO.C,C5*%
X157062142Y-57402166D02*
X157109761Y-57449785D01*
X157109761Y-57449785D02*
X157157380Y-57592642D01*
X157157380Y-57592642D02*
X157157380Y-57687880D01*
X157157380Y-57687880D02*
X157109761Y-57830737D01*
X157109761Y-57830737D02*
X157014523Y-57925975D01*
X157014523Y-57925975D02*
X156919285Y-57973594D01*
X156919285Y-57973594D02*
X156728809Y-58021213D01*
X156728809Y-58021213D02*
X156585952Y-58021213D01*
X156585952Y-58021213D02*
X156395476Y-57973594D01*
X156395476Y-57973594D02*
X156300238Y-57925975D01*
X156300238Y-57925975D02*
X156205000Y-57830737D01*
X156205000Y-57830737D02*
X156157380Y-57687880D01*
X156157380Y-57687880D02*
X156157380Y-57592642D01*
X156157380Y-57592642D02*
X156205000Y-57449785D01*
X156205000Y-57449785D02*
X156252619Y-57402166D01*
X156157380Y-56497404D02*
X156157380Y-56973594D01*
X156157380Y-56973594D02*
X156633571Y-57021213D01*
X156633571Y-57021213D02*
X156585952Y-56973594D01*
X156585952Y-56973594D02*
X156538333Y-56878356D01*
X156538333Y-56878356D02*
X156538333Y-56640261D01*
X156538333Y-56640261D02*
X156585952Y-56545023D01*
X156585952Y-56545023D02*
X156633571Y-56497404D01*
X156633571Y-56497404D02*
X156728809Y-56449785D01*
X156728809Y-56449785D02*
X156966904Y-56449785D01*
X156966904Y-56449785D02*
X157062142Y-56497404D01*
X157062142Y-56497404D02*
X157109761Y-56545023D01*
X157109761Y-56545023D02*
X157157380Y-56640261D01*
X157157380Y-56640261D02*
X157157380Y-56878356D01*
X157157380Y-56878356D02*
X157109761Y-56973594D01*
X157109761Y-56973594D02*
X157062142Y-57021213D01*
%TO.C,R3*%
X145062380Y-105703666D02*
X144586190Y-106036999D01*
X145062380Y-106275094D02*
X144062380Y-106275094D01*
X144062380Y-106275094D02*
X144062380Y-105894142D01*
X144062380Y-105894142D02*
X144110000Y-105798904D01*
X144110000Y-105798904D02*
X144157619Y-105751285D01*
X144157619Y-105751285D02*
X144252857Y-105703666D01*
X144252857Y-105703666D02*
X144395714Y-105703666D01*
X144395714Y-105703666D02*
X144490952Y-105751285D01*
X144490952Y-105751285D02*
X144538571Y-105798904D01*
X144538571Y-105798904D02*
X144586190Y-105894142D01*
X144586190Y-105894142D02*
X144586190Y-106275094D01*
X144062380Y-105370332D02*
X144062380Y-104751285D01*
X144062380Y-104751285D02*
X144443333Y-105084618D01*
X144443333Y-105084618D02*
X144443333Y-104941761D01*
X144443333Y-104941761D02*
X144490952Y-104846523D01*
X144490952Y-104846523D02*
X144538571Y-104798904D01*
X144538571Y-104798904D02*
X144633809Y-104751285D01*
X144633809Y-104751285D02*
X144871904Y-104751285D01*
X144871904Y-104751285D02*
X144967142Y-104798904D01*
X144967142Y-104798904D02*
X145014761Y-104846523D01*
X145014761Y-104846523D02*
X145062380Y-104941761D01*
X145062380Y-104941761D02*
X145062380Y-105227475D01*
X145062380Y-105227475D02*
X145014761Y-105322713D01*
X145014761Y-105322713D02*
X144967142Y-105370332D01*
%TO.C,R14*%
X151201380Y-57858357D02*
X150725190Y-58191690D01*
X151201380Y-58429785D02*
X150201380Y-58429785D01*
X150201380Y-58429785D02*
X150201380Y-58048833D01*
X150201380Y-58048833D02*
X150249000Y-57953595D01*
X150249000Y-57953595D02*
X150296619Y-57905976D01*
X150296619Y-57905976D02*
X150391857Y-57858357D01*
X150391857Y-57858357D02*
X150534714Y-57858357D01*
X150534714Y-57858357D02*
X150629952Y-57905976D01*
X150629952Y-57905976D02*
X150677571Y-57953595D01*
X150677571Y-57953595D02*
X150725190Y-58048833D01*
X150725190Y-58048833D02*
X150725190Y-58429785D01*
X151201380Y-56905976D02*
X151201380Y-57477404D01*
X151201380Y-57191690D02*
X150201380Y-57191690D01*
X150201380Y-57191690D02*
X150344238Y-57286928D01*
X150344238Y-57286928D02*
X150439476Y-57382166D01*
X150439476Y-57382166D02*
X150487095Y-57477404D01*
X150534714Y-56048833D02*
X151201380Y-56048833D01*
X150153761Y-56286928D02*
X150868047Y-56525023D01*
X150868047Y-56525023D02*
X150868047Y-55905976D01*
%TO.C,U4*%
X140074074Y-133935874D02*
X140074074Y-134573295D01*
X140074074Y-134573295D02*
X140111570Y-134648286D01*
X140111570Y-134648286D02*
X140149065Y-134685781D01*
X140149065Y-134685781D02*
X140224056Y-134723276D01*
X140224056Y-134723276D02*
X140374037Y-134723276D01*
X140374037Y-134723276D02*
X140449028Y-134685781D01*
X140449028Y-134685781D02*
X140486523Y-134648286D01*
X140486523Y-134648286D02*
X140524018Y-134573295D01*
X140524018Y-134573295D02*
X140524018Y-133935874D01*
X141236429Y-134198342D02*
X141236429Y-134723276D01*
X141048953Y-133898379D02*
X140861476Y-134460809D01*
X140861476Y-134460809D02*
X141348915Y-134460809D01*
D12*
X139374000Y-135407476D02*
X139374000Y-135455095D01*
X139326381Y-135436047D02*
X139374000Y-135455095D01*
X139374000Y-135455095D02*
X139421619Y-135436047D01*
X139345429Y-135493190D02*
X139374000Y-135455095D01*
X139374000Y-135455095D02*
X139402571Y-135493190D01*
D11*
%TO.C,D4*%
X162633380Y-58650094D02*
X161633380Y-58650094D01*
X161633380Y-58650094D02*
X161633380Y-58411999D01*
X161633380Y-58411999D02*
X161681000Y-58269142D01*
X161681000Y-58269142D02*
X161776238Y-58173904D01*
X161776238Y-58173904D02*
X161871476Y-58126285D01*
X161871476Y-58126285D02*
X162061952Y-58078666D01*
X162061952Y-58078666D02*
X162204809Y-58078666D01*
X162204809Y-58078666D02*
X162395285Y-58126285D01*
X162395285Y-58126285D02*
X162490523Y-58173904D01*
X162490523Y-58173904D02*
X162585761Y-58269142D01*
X162585761Y-58269142D02*
X162633380Y-58411999D01*
X162633380Y-58411999D02*
X162633380Y-58650094D01*
X161966714Y-57221523D02*
X162633380Y-57221523D01*
X161585761Y-57459618D02*
X162300047Y-57697713D01*
X162300047Y-57697713D02*
X162300047Y-57078666D01*
%TO.C,J3*%
X131671666Y-44598380D02*
X131671666Y-45312666D01*
X131671666Y-45312666D02*
X131624047Y-45455523D01*
X131624047Y-45455523D02*
X131528809Y-45550761D01*
X131528809Y-45550761D02*
X131385952Y-45598380D01*
X131385952Y-45598380D02*
X131290714Y-45598380D01*
X132052619Y-44598380D02*
X132671666Y-44598380D01*
X132671666Y-44598380D02*
X132338333Y-44979333D01*
X132338333Y-44979333D02*
X132481190Y-44979333D01*
X132481190Y-44979333D02*
X132576428Y-45026952D01*
X132576428Y-45026952D02*
X132624047Y-45074571D01*
X132624047Y-45074571D02*
X132671666Y-45169809D01*
X132671666Y-45169809D02*
X132671666Y-45407904D01*
X132671666Y-45407904D02*
X132624047Y-45503142D01*
X132624047Y-45503142D02*
X132576428Y-45550761D01*
X132576428Y-45550761D02*
X132481190Y-45598380D01*
X132481190Y-45598380D02*
X132195476Y-45598380D01*
X132195476Y-45598380D02*
X132100238Y-45550761D01*
X132100238Y-45550761D02*
X132052619Y-45503142D01*
%TO.C,J2*%
X93671666Y-44598380D02*
X93671666Y-45312666D01*
X93671666Y-45312666D02*
X93624047Y-45455523D01*
X93624047Y-45455523D02*
X93528809Y-45550761D01*
X93528809Y-45550761D02*
X93385952Y-45598380D01*
X93385952Y-45598380D02*
X93290714Y-45598380D01*
X94100238Y-44693619D02*
X94147857Y-44646000D01*
X94147857Y-44646000D02*
X94243095Y-44598380D01*
X94243095Y-44598380D02*
X94481190Y-44598380D01*
X94481190Y-44598380D02*
X94576428Y-44646000D01*
X94576428Y-44646000D02*
X94624047Y-44693619D01*
X94624047Y-44693619D02*
X94671666Y-44788857D01*
X94671666Y-44788857D02*
X94671666Y-44884095D01*
X94671666Y-44884095D02*
X94624047Y-45026952D01*
X94624047Y-45026952D02*
X94052619Y-45598380D01*
X94052619Y-45598380D02*
X94671666Y-45598380D01*
%TO.C,R16*%
X155095380Y-51188857D02*
X154619190Y-51522190D01*
X155095380Y-51760285D02*
X154095380Y-51760285D01*
X154095380Y-51760285D02*
X154095380Y-51379333D01*
X154095380Y-51379333D02*
X154143000Y-51284095D01*
X154143000Y-51284095D02*
X154190619Y-51236476D01*
X154190619Y-51236476D02*
X154285857Y-51188857D01*
X154285857Y-51188857D02*
X154428714Y-51188857D01*
X154428714Y-51188857D02*
X154523952Y-51236476D01*
X154523952Y-51236476D02*
X154571571Y-51284095D01*
X154571571Y-51284095D02*
X154619190Y-51379333D01*
X154619190Y-51379333D02*
X154619190Y-51760285D01*
X155095380Y-50236476D02*
X155095380Y-50807904D01*
X155095380Y-50522190D02*
X154095380Y-50522190D01*
X154095380Y-50522190D02*
X154238238Y-50617428D01*
X154238238Y-50617428D02*
X154333476Y-50712666D01*
X154333476Y-50712666D02*
X154381095Y-50807904D01*
X154095380Y-49379333D02*
X154095380Y-49569809D01*
X154095380Y-49569809D02*
X154143000Y-49665047D01*
X154143000Y-49665047D02*
X154190619Y-49712666D01*
X154190619Y-49712666D02*
X154333476Y-49807904D01*
X154333476Y-49807904D02*
X154523952Y-49855523D01*
X154523952Y-49855523D02*
X154904904Y-49855523D01*
X154904904Y-49855523D02*
X155000142Y-49807904D01*
X155000142Y-49807904D02*
X155047761Y-49760285D01*
X155047761Y-49760285D02*
X155095380Y-49665047D01*
X155095380Y-49665047D02*
X155095380Y-49474571D01*
X155095380Y-49474571D02*
X155047761Y-49379333D01*
X155047761Y-49379333D02*
X155000142Y-49331714D01*
X155000142Y-49331714D02*
X154904904Y-49284095D01*
X154904904Y-49284095D02*
X154666809Y-49284095D01*
X154666809Y-49284095D02*
X154571571Y-49331714D01*
X154571571Y-49331714D02*
X154523952Y-49379333D01*
X154523952Y-49379333D02*
X154476333Y-49474571D01*
X154476333Y-49474571D02*
X154476333Y-49665047D01*
X154476333Y-49665047D02*
X154523952Y-49760285D01*
X154523952Y-49760285D02*
X154571571Y-49807904D01*
X154571571Y-49807904D02*
X154666809Y-49855523D01*
%TO.C,R25*%
X161155142Y-99131380D02*
X160821809Y-98655190D01*
X160583714Y-99131380D02*
X160583714Y-98131380D01*
X160583714Y-98131380D02*
X160964666Y-98131380D01*
X160964666Y-98131380D02*
X161059904Y-98179000D01*
X161059904Y-98179000D02*
X161107523Y-98226619D01*
X161107523Y-98226619D02*
X161155142Y-98321857D01*
X161155142Y-98321857D02*
X161155142Y-98464714D01*
X161155142Y-98464714D02*
X161107523Y-98559952D01*
X161107523Y-98559952D02*
X161059904Y-98607571D01*
X161059904Y-98607571D02*
X160964666Y-98655190D01*
X160964666Y-98655190D02*
X160583714Y-98655190D01*
X161536095Y-98226619D02*
X161583714Y-98179000D01*
X161583714Y-98179000D02*
X161678952Y-98131380D01*
X161678952Y-98131380D02*
X161917047Y-98131380D01*
X161917047Y-98131380D02*
X162012285Y-98179000D01*
X162012285Y-98179000D02*
X162059904Y-98226619D01*
X162059904Y-98226619D02*
X162107523Y-98321857D01*
X162107523Y-98321857D02*
X162107523Y-98417095D01*
X162107523Y-98417095D02*
X162059904Y-98559952D01*
X162059904Y-98559952D02*
X161488476Y-99131380D01*
X161488476Y-99131380D02*
X162107523Y-99131380D01*
X163012285Y-98131380D02*
X162536095Y-98131380D01*
X162536095Y-98131380D02*
X162488476Y-98607571D01*
X162488476Y-98607571D02*
X162536095Y-98559952D01*
X162536095Y-98559952D02*
X162631333Y-98512333D01*
X162631333Y-98512333D02*
X162869428Y-98512333D01*
X162869428Y-98512333D02*
X162964666Y-98559952D01*
X162964666Y-98559952D02*
X163012285Y-98607571D01*
X163012285Y-98607571D02*
X163059904Y-98702809D01*
X163059904Y-98702809D02*
X163059904Y-98940904D01*
X163059904Y-98940904D02*
X163012285Y-99036142D01*
X163012285Y-99036142D02*
X162964666Y-99083761D01*
X162964666Y-99083761D02*
X162869428Y-99131380D01*
X162869428Y-99131380D02*
X162631333Y-99131380D01*
X162631333Y-99131380D02*
X162536095Y-99083761D01*
X162536095Y-99083761D02*
X162488476Y-99036142D01*
%TO.C,R23*%
X145570380Y-43568857D02*
X145094190Y-43902190D01*
X145570380Y-44140285D02*
X144570380Y-44140285D01*
X144570380Y-44140285D02*
X144570380Y-43759333D01*
X144570380Y-43759333D02*
X144618000Y-43664095D01*
X144618000Y-43664095D02*
X144665619Y-43616476D01*
X144665619Y-43616476D02*
X144760857Y-43568857D01*
X144760857Y-43568857D02*
X144903714Y-43568857D01*
X144903714Y-43568857D02*
X144998952Y-43616476D01*
X144998952Y-43616476D02*
X145046571Y-43664095D01*
X145046571Y-43664095D02*
X145094190Y-43759333D01*
X145094190Y-43759333D02*
X145094190Y-44140285D01*
X144665619Y-43187904D02*
X144618000Y-43140285D01*
X144618000Y-43140285D02*
X144570380Y-43045047D01*
X144570380Y-43045047D02*
X144570380Y-42806952D01*
X144570380Y-42806952D02*
X144618000Y-42711714D01*
X144618000Y-42711714D02*
X144665619Y-42664095D01*
X144665619Y-42664095D02*
X144760857Y-42616476D01*
X144760857Y-42616476D02*
X144856095Y-42616476D01*
X144856095Y-42616476D02*
X144998952Y-42664095D01*
X144998952Y-42664095D02*
X145570380Y-43235523D01*
X145570380Y-43235523D02*
X145570380Y-42616476D01*
X144570380Y-42283142D02*
X144570380Y-41664095D01*
X144570380Y-41664095D02*
X144951333Y-41997428D01*
X144951333Y-41997428D02*
X144951333Y-41854571D01*
X144951333Y-41854571D02*
X144998952Y-41759333D01*
X144998952Y-41759333D02*
X145046571Y-41711714D01*
X145046571Y-41711714D02*
X145141809Y-41664095D01*
X145141809Y-41664095D02*
X145379904Y-41664095D01*
X145379904Y-41664095D02*
X145475142Y-41711714D01*
X145475142Y-41711714D02*
X145522761Y-41759333D01*
X145522761Y-41759333D02*
X145570380Y-41854571D01*
X145570380Y-41854571D02*
X145570380Y-42140285D01*
X145570380Y-42140285D02*
X145522761Y-42235523D01*
X145522761Y-42235523D02*
X145475142Y-42283142D01*
%TO.C,R24*%
X161155142Y-70429380D02*
X160821809Y-69953190D01*
X160583714Y-70429380D02*
X160583714Y-69429380D01*
X160583714Y-69429380D02*
X160964666Y-69429380D01*
X160964666Y-69429380D02*
X161059904Y-69477000D01*
X161059904Y-69477000D02*
X161107523Y-69524619D01*
X161107523Y-69524619D02*
X161155142Y-69619857D01*
X161155142Y-69619857D02*
X161155142Y-69762714D01*
X161155142Y-69762714D02*
X161107523Y-69857952D01*
X161107523Y-69857952D02*
X161059904Y-69905571D01*
X161059904Y-69905571D02*
X160964666Y-69953190D01*
X160964666Y-69953190D02*
X160583714Y-69953190D01*
X161536095Y-69524619D02*
X161583714Y-69477000D01*
X161583714Y-69477000D02*
X161678952Y-69429380D01*
X161678952Y-69429380D02*
X161917047Y-69429380D01*
X161917047Y-69429380D02*
X162012285Y-69477000D01*
X162012285Y-69477000D02*
X162059904Y-69524619D01*
X162059904Y-69524619D02*
X162107523Y-69619857D01*
X162107523Y-69619857D02*
X162107523Y-69715095D01*
X162107523Y-69715095D02*
X162059904Y-69857952D01*
X162059904Y-69857952D02*
X161488476Y-70429380D01*
X161488476Y-70429380D02*
X162107523Y-70429380D01*
X162964666Y-69762714D02*
X162964666Y-70429380D01*
X162726571Y-69381761D02*
X162488476Y-70096047D01*
X162488476Y-70096047D02*
X163107523Y-70096047D01*
%TO.C,D7*%
X150354380Y-43029094D02*
X149354380Y-43029094D01*
X149354380Y-43029094D02*
X149354380Y-42790999D01*
X149354380Y-42790999D02*
X149402000Y-42648142D01*
X149402000Y-42648142D02*
X149497238Y-42552904D01*
X149497238Y-42552904D02*
X149592476Y-42505285D01*
X149592476Y-42505285D02*
X149782952Y-42457666D01*
X149782952Y-42457666D02*
X149925809Y-42457666D01*
X149925809Y-42457666D02*
X150116285Y-42505285D01*
X150116285Y-42505285D02*
X150211523Y-42552904D01*
X150211523Y-42552904D02*
X150306761Y-42648142D01*
X150306761Y-42648142D02*
X150354380Y-42790999D01*
X150354380Y-42790999D02*
X150354380Y-43029094D01*
X149354380Y-42124332D02*
X149354380Y-41457666D01*
X149354380Y-41457666D02*
X150354380Y-41886237D01*
%TO.C,U2*%
X98328380Y-90764904D02*
X99137904Y-90764904D01*
X99137904Y-90764904D02*
X99233142Y-90717285D01*
X99233142Y-90717285D02*
X99280761Y-90669666D01*
X99280761Y-90669666D02*
X99328380Y-90574428D01*
X99328380Y-90574428D02*
X99328380Y-90383952D01*
X99328380Y-90383952D02*
X99280761Y-90288714D01*
X99280761Y-90288714D02*
X99233142Y-90241095D01*
X99233142Y-90241095D02*
X99137904Y-90193476D01*
X99137904Y-90193476D02*
X98328380Y-90193476D01*
X98423619Y-89764904D02*
X98376000Y-89717285D01*
X98376000Y-89717285D02*
X98328380Y-89622047D01*
X98328380Y-89622047D02*
X98328380Y-89383952D01*
X98328380Y-89383952D02*
X98376000Y-89288714D01*
X98376000Y-89288714D02*
X98423619Y-89241095D01*
X98423619Y-89241095D02*
X98518857Y-89193476D01*
X98518857Y-89193476D02*
X98614095Y-89193476D01*
X98614095Y-89193476D02*
X98756952Y-89241095D01*
X98756952Y-89241095D02*
X99328380Y-89812523D01*
X99328380Y-89812523D02*
X99328380Y-89193476D01*
%TO.C,C7*%
X144108142Y-61253666D02*
X144155761Y-61301285D01*
X144155761Y-61301285D02*
X144203380Y-61444142D01*
X144203380Y-61444142D02*
X144203380Y-61539380D01*
X144203380Y-61539380D02*
X144155761Y-61682237D01*
X144155761Y-61682237D02*
X144060523Y-61777475D01*
X144060523Y-61777475D02*
X143965285Y-61825094D01*
X143965285Y-61825094D02*
X143774809Y-61872713D01*
X143774809Y-61872713D02*
X143631952Y-61872713D01*
X143631952Y-61872713D02*
X143441476Y-61825094D01*
X143441476Y-61825094D02*
X143346238Y-61777475D01*
X143346238Y-61777475D02*
X143251000Y-61682237D01*
X143251000Y-61682237D02*
X143203380Y-61539380D01*
X143203380Y-61539380D02*
X143203380Y-61444142D01*
X143203380Y-61444142D02*
X143251000Y-61301285D01*
X143251000Y-61301285D02*
X143298619Y-61253666D01*
X143203380Y-60920332D02*
X143203380Y-60253666D01*
X143203380Y-60253666D02*
X144203380Y-60682237D01*
%TO.C,U5*%
X155026353Y-73026350D02*
X155026353Y-73837193D01*
X155026353Y-73837193D02*
X155074050Y-73932587D01*
X155074050Y-73932587D02*
X155121746Y-73980283D01*
X155121746Y-73980283D02*
X155217140Y-74027980D01*
X155217140Y-74027980D02*
X155407926Y-74027980D01*
X155407926Y-74027980D02*
X155503320Y-73980283D01*
X155503320Y-73980283D02*
X155551016Y-73932587D01*
X155551016Y-73932587D02*
X155598713Y-73837193D01*
X155598713Y-73837193D02*
X155598713Y-73026350D01*
X156552647Y-73026350D02*
X156075680Y-73026350D01*
X156075680Y-73026350D02*
X156027983Y-73503317D01*
X156027983Y-73503317D02*
X156075680Y-73455620D01*
X156075680Y-73455620D02*
X156171073Y-73407923D01*
X156171073Y-73407923D02*
X156409557Y-73407923D01*
X156409557Y-73407923D02*
X156504950Y-73455620D01*
X156504950Y-73455620D02*
X156552647Y-73503317D01*
X156552647Y-73503317D02*
X156600343Y-73598710D01*
X156600343Y-73598710D02*
X156600343Y-73837193D01*
X156600343Y-73837193D02*
X156552647Y-73932587D01*
X156552647Y-73932587D02*
X156504950Y-73980283D01*
X156504950Y-73980283D02*
X156409557Y-74027980D01*
X156409557Y-74027980D02*
X156171073Y-74027980D01*
X156171073Y-74027980D02*
X156075680Y-73980283D01*
X156075680Y-73980283D02*
X156027983Y-73932587D01*
%TO.C,C2*%
X145536142Y-130517666D02*
X145583761Y-130565285D01*
X145583761Y-130565285D02*
X145631380Y-130708142D01*
X145631380Y-130708142D02*
X145631380Y-130803380D01*
X145631380Y-130803380D02*
X145583761Y-130946237D01*
X145583761Y-130946237D02*
X145488523Y-131041475D01*
X145488523Y-131041475D02*
X145393285Y-131089094D01*
X145393285Y-131089094D02*
X145202809Y-131136713D01*
X145202809Y-131136713D02*
X145059952Y-131136713D01*
X145059952Y-131136713D02*
X144869476Y-131089094D01*
X144869476Y-131089094D02*
X144774238Y-131041475D01*
X144774238Y-131041475D02*
X144679000Y-130946237D01*
X144679000Y-130946237D02*
X144631380Y-130803380D01*
X144631380Y-130803380D02*
X144631380Y-130708142D01*
X144631380Y-130708142D02*
X144679000Y-130565285D01*
X144679000Y-130565285D02*
X144726619Y-130517666D01*
X144726619Y-130136713D02*
X144679000Y-130089094D01*
X144679000Y-130089094D02*
X144631380Y-129993856D01*
X144631380Y-129993856D02*
X144631380Y-129755761D01*
X144631380Y-129755761D02*
X144679000Y-129660523D01*
X144679000Y-129660523D02*
X144726619Y-129612904D01*
X144726619Y-129612904D02*
X144821857Y-129565285D01*
X144821857Y-129565285D02*
X144917095Y-129565285D01*
X144917095Y-129565285D02*
X145059952Y-129612904D01*
X145059952Y-129612904D02*
X145631380Y-130184332D01*
X145631380Y-130184332D02*
X145631380Y-129565285D01*
%TO.C,R12*%
X148068380Y-74937857D02*
X147592190Y-75271190D01*
X148068380Y-75509285D02*
X147068380Y-75509285D01*
X147068380Y-75509285D02*
X147068380Y-75128333D01*
X147068380Y-75128333D02*
X147116000Y-75033095D01*
X147116000Y-75033095D02*
X147163619Y-74985476D01*
X147163619Y-74985476D02*
X147258857Y-74937857D01*
X147258857Y-74937857D02*
X147401714Y-74937857D01*
X147401714Y-74937857D02*
X147496952Y-74985476D01*
X147496952Y-74985476D02*
X147544571Y-75033095D01*
X147544571Y-75033095D02*
X147592190Y-75128333D01*
X147592190Y-75128333D02*
X147592190Y-75509285D01*
X148068380Y-73985476D02*
X148068380Y-74556904D01*
X148068380Y-74271190D02*
X147068380Y-74271190D01*
X147068380Y-74271190D02*
X147211238Y-74366428D01*
X147211238Y-74366428D02*
X147306476Y-74461666D01*
X147306476Y-74461666D02*
X147354095Y-74556904D01*
X147163619Y-73604523D02*
X147116000Y-73556904D01*
X147116000Y-73556904D02*
X147068380Y-73461666D01*
X147068380Y-73461666D02*
X147068380Y-73223571D01*
X147068380Y-73223571D02*
X147116000Y-73128333D01*
X147116000Y-73128333D02*
X147163619Y-73080714D01*
X147163619Y-73080714D02*
X147258857Y-73033095D01*
X147258857Y-73033095D02*
X147354095Y-73033095D01*
X147354095Y-73033095D02*
X147496952Y-73080714D01*
X147496952Y-73080714D02*
X148068380Y-73652142D01*
X148068380Y-73652142D02*
X148068380Y-73033095D01*
%TO.C,D6*%
X143406905Y-83806380D02*
X143406905Y-82806380D01*
X143406905Y-82806380D02*
X143645000Y-82806380D01*
X143645000Y-82806380D02*
X143787857Y-82854000D01*
X143787857Y-82854000D02*
X143883095Y-82949238D01*
X143883095Y-82949238D02*
X143930714Y-83044476D01*
X143930714Y-83044476D02*
X143978333Y-83234952D01*
X143978333Y-83234952D02*
X143978333Y-83377809D01*
X143978333Y-83377809D02*
X143930714Y-83568285D01*
X143930714Y-83568285D02*
X143883095Y-83663523D01*
X143883095Y-83663523D02*
X143787857Y-83758761D01*
X143787857Y-83758761D02*
X143645000Y-83806380D01*
X143645000Y-83806380D02*
X143406905Y-83806380D01*
X144835476Y-82806380D02*
X144645000Y-82806380D01*
X144645000Y-82806380D02*
X144549762Y-82854000D01*
X144549762Y-82854000D02*
X144502143Y-82901619D01*
X144502143Y-82901619D02*
X144406905Y-83044476D01*
X144406905Y-83044476D02*
X144359286Y-83234952D01*
X144359286Y-83234952D02*
X144359286Y-83615904D01*
X144359286Y-83615904D02*
X144406905Y-83711142D01*
X144406905Y-83711142D02*
X144454524Y-83758761D01*
X144454524Y-83758761D02*
X144549762Y-83806380D01*
X144549762Y-83806380D02*
X144740238Y-83806380D01*
X144740238Y-83806380D02*
X144835476Y-83758761D01*
X144835476Y-83758761D02*
X144883095Y-83711142D01*
X144883095Y-83711142D02*
X144930714Y-83615904D01*
X144930714Y-83615904D02*
X144930714Y-83377809D01*
X144930714Y-83377809D02*
X144883095Y-83282571D01*
X144883095Y-83282571D02*
X144835476Y-83234952D01*
X144835476Y-83234952D02*
X144740238Y-83187333D01*
X144740238Y-83187333D02*
X144549762Y-83187333D01*
X144549762Y-83187333D02*
X144454524Y-83234952D01*
X144454524Y-83234952D02*
X144406905Y-83282571D01*
X144406905Y-83282571D02*
X144359286Y-83377809D01*
%TO.C,C9*%
X145179142Y-74588666D02*
X145226761Y-74636285D01*
X145226761Y-74636285D02*
X145274380Y-74779142D01*
X145274380Y-74779142D02*
X145274380Y-74874380D01*
X145274380Y-74874380D02*
X145226761Y-75017237D01*
X145226761Y-75017237D02*
X145131523Y-75112475D01*
X145131523Y-75112475D02*
X145036285Y-75160094D01*
X145036285Y-75160094D02*
X144845809Y-75207713D01*
X144845809Y-75207713D02*
X144702952Y-75207713D01*
X144702952Y-75207713D02*
X144512476Y-75160094D01*
X144512476Y-75160094D02*
X144417238Y-75112475D01*
X144417238Y-75112475D02*
X144322000Y-75017237D01*
X144322000Y-75017237D02*
X144274380Y-74874380D01*
X144274380Y-74874380D02*
X144274380Y-74779142D01*
X144274380Y-74779142D02*
X144322000Y-74636285D01*
X144322000Y-74636285D02*
X144369619Y-74588666D01*
X145274380Y-74112475D02*
X145274380Y-73921999D01*
X145274380Y-73921999D02*
X145226761Y-73826761D01*
X145226761Y-73826761D02*
X145179142Y-73779142D01*
X145179142Y-73779142D02*
X145036285Y-73683904D01*
X145036285Y-73683904D02*
X144845809Y-73636285D01*
X144845809Y-73636285D02*
X144464857Y-73636285D01*
X144464857Y-73636285D02*
X144369619Y-73683904D01*
X144369619Y-73683904D02*
X144322000Y-73731523D01*
X144322000Y-73731523D02*
X144274380Y-73826761D01*
X144274380Y-73826761D02*
X144274380Y-74017237D01*
X144274380Y-74017237D02*
X144322000Y-74112475D01*
X144322000Y-74112475D02*
X144369619Y-74160094D01*
X144369619Y-74160094D02*
X144464857Y-74207713D01*
X144464857Y-74207713D02*
X144702952Y-74207713D01*
X144702952Y-74207713D02*
X144798190Y-74160094D01*
X144798190Y-74160094D02*
X144845809Y-74112475D01*
X144845809Y-74112475D02*
X144893428Y-74017237D01*
X144893428Y-74017237D02*
X144893428Y-73826761D01*
X144893428Y-73826761D02*
X144845809Y-73731523D01*
X144845809Y-73731523D02*
X144798190Y-73683904D01*
X144798190Y-73683904D02*
X144702952Y-73636285D01*
%TO.C,R26*%
X139819142Y-68481380D02*
X139485809Y-68005190D01*
X139247714Y-68481380D02*
X139247714Y-67481380D01*
X139247714Y-67481380D02*
X139628666Y-67481380D01*
X139628666Y-67481380D02*
X139723904Y-67529000D01*
X139723904Y-67529000D02*
X139771523Y-67576619D01*
X139771523Y-67576619D02*
X139819142Y-67671857D01*
X139819142Y-67671857D02*
X139819142Y-67814714D01*
X139819142Y-67814714D02*
X139771523Y-67909952D01*
X139771523Y-67909952D02*
X139723904Y-67957571D01*
X139723904Y-67957571D02*
X139628666Y-68005190D01*
X139628666Y-68005190D02*
X139247714Y-68005190D01*
X140200095Y-67576619D02*
X140247714Y-67529000D01*
X140247714Y-67529000D02*
X140342952Y-67481380D01*
X140342952Y-67481380D02*
X140581047Y-67481380D01*
X140581047Y-67481380D02*
X140676285Y-67529000D01*
X140676285Y-67529000D02*
X140723904Y-67576619D01*
X140723904Y-67576619D02*
X140771523Y-67671857D01*
X140771523Y-67671857D02*
X140771523Y-67767095D01*
X140771523Y-67767095D02*
X140723904Y-67909952D01*
X140723904Y-67909952D02*
X140152476Y-68481380D01*
X140152476Y-68481380D02*
X140771523Y-68481380D01*
X141628666Y-67481380D02*
X141438190Y-67481380D01*
X141438190Y-67481380D02*
X141342952Y-67529000D01*
X141342952Y-67529000D02*
X141295333Y-67576619D01*
X141295333Y-67576619D02*
X141200095Y-67719476D01*
X141200095Y-67719476D02*
X141152476Y-67909952D01*
X141152476Y-67909952D02*
X141152476Y-68290904D01*
X141152476Y-68290904D02*
X141200095Y-68386142D01*
X141200095Y-68386142D02*
X141247714Y-68433761D01*
X141247714Y-68433761D02*
X141342952Y-68481380D01*
X141342952Y-68481380D02*
X141533428Y-68481380D01*
X141533428Y-68481380D02*
X141628666Y-68433761D01*
X141628666Y-68433761D02*
X141676285Y-68386142D01*
X141676285Y-68386142D02*
X141723904Y-68290904D01*
X141723904Y-68290904D02*
X141723904Y-68052809D01*
X141723904Y-68052809D02*
X141676285Y-67957571D01*
X141676285Y-67957571D02*
X141628666Y-67909952D01*
X141628666Y-67909952D02*
X141533428Y-67862333D01*
X141533428Y-67862333D02*
X141342952Y-67862333D01*
X141342952Y-67862333D02*
X141247714Y-67909952D01*
X141247714Y-67909952D02*
X141200095Y-67957571D01*
X141200095Y-67957571D02*
X141152476Y-68052809D01*
%TO.C,J4*%
X154978666Y-44710380D02*
X154978666Y-45424666D01*
X154978666Y-45424666D02*
X154931047Y-45567523D01*
X154931047Y-45567523D02*
X154835809Y-45662761D01*
X154835809Y-45662761D02*
X154692952Y-45710380D01*
X154692952Y-45710380D02*
X154597714Y-45710380D01*
X155883428Y-45043714D02*
X155883428Y-45710380D01*
X155645333Y-44662761D02*
X155407238Y-45377047D01*
X155407238Y-45377047D02*
X156026285Y-45377047D01*
%TO.C,C1*%
X141678142Y-130517666D02*
X141725761Y-130565285D01*
X141725761Y-130565285D02*
X141773380Y-130708142D01*
X141773380Y-130708142D02*
X141773380Y-130803380D01*
X141773380Y-130803380D02*
X141725761Y-130946237D01*
X141725761Y-130946237D02*
X141630523Y-131041475D01*
X141630523Y-131041475D02*
X141535285Y-131089094D01*
X141535285Y-131089094D02*
X141344809Y-131136713D01*
X141344809Y-131136713D02*
X141201952Y-131136713D01*
X141201952Y-131136713D02*
X141011476Y-131089094D01*
X141011476Y-131089094D02*
X140916238Y-131041475D01*
X140916238Y-131041475D02*
X140821000Y-130946237D01*
X140821000Y-130946237D02*
X140773380Y-130803380D01*
X140773380Y-130803380D02*
X140773380Y-130708142D01*
X140773380Y-130708142D02*
X140821000Y-130565285D01*
X140821000Y-130565285D02*
X140868619Y-130517666D01*
X141773380Y-129565285D02*
X141773380Y-130136713D01*
X141773380Y-129850999D02*
X140773380Y-129850999D01*
X140773380Y-129850999D02*
X140916238Y-129946237D01*
X140916238Y-129946237D02*
X141011476Y-130041475D01*
X141011476Y-130041475D02*
X141059095Y-130136713D01*
%TO.C,R13*%
X150608380Y-75445857D02*
X150132190Y-75779190D01*
X150608380Y-76017285D02*
X149608380Y-76017285D01*
X149608380Y-76017285D02*
X149608380Y-75636333D01*
X149608380Y-75636333D02*
X149656000Y-75541095D01*
X149656000Y-75541095D02*
X149703619Y-75493476D01*
X149703619Y-75493476D02*
X149798857Y-75445857D01*
X149798857Y-75445857D02*
X149941714Y-75445857D01*
X149941714Y-75445857D02*
X150036952Y-75493476D01*
X150036952Y-75493476D02*
X150084571Y-75541095D01*
X150084571Y-75541095D02*
X150132190Y-75636333D01*
X150132190Y-75636333D02*
X150132190Y-76017285D01*
X150608380Y-74493476D02*
X150608380Y-75064904D01*
X150608380Y-74779190D02*
X149608380Y-74779190D01*
X149608380Y-74779190D02*
X149751238Y-74874428D01*
X149751238Y-74874428D02*
X149846476Y-74969666D01*
X149846476Y-74969666D02*
X149894095Y-75064904D01*
X149608380Y-74160142D02*
X149608380Y-73541095D01*
X149608380Y-73541095D02*
X149989333Y-73874428D01*
X149989333Y-73874428D02*
X149989333Y-73731571D01*
X149989333Y-73731571D02*
X150036952Y-73636333D01*
X150036952Y-73636333D02*
X150084571Y-73588714D01*
X150084571Y-73588714D02*
X150179809Y-73541095D01*
X150179809Y-73541095D02*
X150417904Y-73541095D01*
X150417904Y-73541095D02*
X150513142Y-73588714D01*
X150513142Y-73588714D02*
X150560761Y-73636333D01*
X150560761Y-73636333D02*
X150608380Y-73731571D01*
X150608380Y-73731571D02*
X150608380Y-74017285D01*
X150608380Y-74017285D02*
X150560761Y-74112523D01*
X150560761Y-74112523D02*
X150513142Y-74160142D01*
%TO.C,C6*%
X157371142Y-87669666D02*
X157418761Y-87717285D01*
X157418761Y-87717285D02*
X157466380Y-87860142D01*
X157466380Y-87860142D02*
X157466380Y-87955380D01*
X157466380Y-87955380D02*
X157418761Y-88098237D01*
X157418761Y-88098237D02*
X157323523Y-88193475D01*
X157323523Y-88193475D02*
X157228285Y-88241094D01*
X157228285Y-88241094D02*
X157037809Y-88288713D01*
X157037809Y-88288713D02*
X156894952Y-88288713D01*
X156894952Y-88288713D02*
X156704476Y-88241094D01*
X156704476Y-88241094D02*
X156609238Y-88193475D01*
X156609238Y-88193475D02*
X156514000Y-88098237D01*
X156514000Y-88098237D02*
X156466380Y-87955380D01*
X156466380Y-87955380D02*
X156466380Y-87860142D01*
X156466380Y-87860142D02*
X156514000Y-87717285D01*
X156514000Y-87717285D02*
X156561619Y-87669666D01*
X156466380Y-86812523D02*
X156466380Y-87002999D01*
X156466380Y-87002999D02*
X156514000Y-87098237D01*
X156514000Y-87098237D02*
X156561619Y-87145856D01*
X156561619Y-87145856D02*
X156704476Y-87241094D01*
X156704476Y-87241094D02*
X156894952Y-87288713D01*
X156894952Y-87288713D02*
X157275904Y-87288713D01*
X157275904Y-87288713D02*
X157371142Y-87241094D01*
X157371142Y-87241094D02*
X157418761Y-87193475D01*
X157418761Y-87193475D02*
X157466380Y-87098237D01*
X157466380Y-87098237D02*
X157466380Y-86907761D01*
X157466380Y-86907761D02*
X157418761Y-86812523D01*
X157418761Y-86812523D02*
X157371142Y-86764904D01*
X157371142Y-86764904D02*
X157275904Y-86717285D01*
X157275904Y-86717285D02*
X157037809Y-86717285D01*
X157037809Y-86717285D02*
X156942571Y-86764904D01*
X156942571Y-86764904D02*
X156894952Y-86812523D01*
X156894952Y-86812523D02*
X156847333Y-86907761D01*
X156847333Y-86907761D02*
X156847333Y-87098237D01*
X156847333Y-87098237D02*
X156894952Y-87193475D01*
X156894952Y-87193475D02*
X156942571Y-87241094D01*
X156942571Y-87241094D02*
X157037809Y-87288713D01*
%TO.C,R1*%
X139093380Y-100496666D02*
X138617190Y-100829999D01*
X139093380Y-101068094D02*
X138093380Y-101068094D01*
X138093380Y-101068094D02*
X138093380Y-100687142D01*
X138093380Y-100687142D02*
X138141000Y-100591904D01*
X138141000Y-100591904D02*
X138188619Y-100544285D01*
X138188619Y-100544285D02*
X138283857Y-100496666D01*
X138283857Y-100496666D02*
X138426714Y-100496666D01*
X138426714Y-100496666D02*
X138521952Y-100544285D01*
X138521952Y-100544285D02*
X138569571Y-100591904D01*
X138569571Y-100591904D02*
X138617190Y-100687142D01*
X138617190Y-100687142D02*
X138617190Y-101068094D01*
X139093380Y-99544285D02*
X139093380Y-100115713D01*
X139093380Y-99829999D02*
X138093380Y-99829999D01*
X138093380Y-99829999D02*
X138236238Y-99925237D01*
X138236238Y-99925237D02*
X138331476Y-100020475D01*
X138331476Y-100020475D02*
X138379095Y-100115713D01*
%TO.C,U3*%
X103619905Y-114592131D02*
X104430748Y-114592131D01*
X104430748Y-114592131D02*
X104526142Y-114544435D01*
X104526142Y-114544435D02*
X104573838Y-114496738D01*
X104573838Y-114496738D02*
X104621535Y-114401345D01*
X104621535Y-114401345D02*
X104621535Y-114210558D01*
X104621535Y-114210558D02*
X104573838Y-114115165D01*
X104573838Y-114115165D02*
X104526142Y-114067468D01*
X104526142Y-114067468D02*
X104430748Y-114019771D01*
X104430748Y-114019771D02*
X103619905Y-114019771D01*
X103619905Y-113638198D02*
X103619905Y-113018141D01*
X103619905Y-113018141D02*
X104001478Y-113352018D01*
X104001478Y-113352018D02*
X104001478Y-113208928D01*
X104001478Y-113208928D02*
X104049175Y-113113534D01*
X104049175Y-113113534D02*
X104096872Y-113065838D01*
X104096872Y-113065838D02*
X104192265Y-113018141D01*
X104192265Y-113018141D02*
X104430748Y-113018141D01*
X104430748Y-113018141D02*
X104526142Y-113065838D01*
X104526142Y-113065838D02*
X104573838Y-113113534D01*
X104573838Y-113113534D02*
X104621535Y-113208928D01*
X104621535Y-113208928D02*
X104621535Y-113495108D01*
X104621535Y-113495108D02*
X104573838Y-113590501D01*
X104573838Y-113590501D02*
X104526142Y-113638198D01*
%TO.C,C8*%
X167649333Y-42254142D02*
X167601714Y-42301761D01*
X167601714Y-42301761D02*
X167458857Y-42349380D01*
X167458857Y-42349380D02*
X167363619Y-42349380D01*
X167363619Y-42349380D02*
X167220762Y-42301761D01*
X167220762Y-42301761D02*
X167125524Y-42206523D01*
X167125524Y-42206523D02*
X167077905Y-42111285D01*
X167077905Y-42111285D02*
X167030286Y-41920809D01*
X167030286Y-41920809D02*
X167030286Y-41777952D01*
X167030286Y-41777952D02*
X167077905Y-41587476D01*
X167077905Y-41587476D02*
X167125524Y-41492238D01*
X167125524Y-41492238D02*
X167220762Y-41397000D01*
X167220762Y-41397000D02*
X167363619Y-41349380D01*
X167363619Y-41349380D02*
X167458857Y-41349380D01*
X167458857Y-41349380D02*
X167601714Y-41397000D01*
X167601714Y-41397000D02*
X167649333Y-41444619D01*
X168220762Y-41777952D02*
X168125524Y-41730333D01*
X168125524Y-41730333D02*
X168077905Y-41682714D01*
X168077905Y-41682714D02*
X168030286Y-41587476D01*
X168030286Y-41587476D02*
X168030286Y-41539857D01*
X168030286Y-41539857D02*
X168077905Y-41444619D01*
X168077905Y-41444619D02*
X168125524Y-41397000D01*
X168125524Y-41397000D02*
X168220762Y-41349380D01*
X168220762Y-41349380D02*
X168411238Y-41349380D01*
X168411238Y-41349380D02*
X168506476Y-41397000D01*
X168506476Y-41397000D02*
X168554095Y-41444619D01*
X168554095Y-41444619D02*
X168601714Y-41539857D01*
X168601714Y-41539857D02*
X168601714Y-41587476D01*
X168601714Y-41587476D02*
X168554095Y-41682714D01*
X168554095Y-41682714D02*
X168506476Y-41730333D01*
X168506476Y-41730333D02*
X168411238Y-41777952D01*
X168411238Y-41777952D02*
X168220762Y-41777952D01*
X168220762Y-41777952D02*
X168125524Y-41825571D01*
X168125524Y-41825571D02*
X168077905Y-41873190D01*
X168077905Y-41873190D02*
X168030286Y-41968428D01*
X168030286Y-41968428D02*
X168030286Y-42158904D01*
X168030286Y-42158904D02*
X168077905Y-42254142D01*
X168077905Y-42254142D02*
X168125524Y-42301761D01*
X168125524Y-42301761D02*
X168220762Y-42349380D01*
X168220762Y-42349380D02*
X168411238Y-42349380D01*
X168411238Y-42349380D02*
X168506476Y-42301761D01*
X168506476Y-42301761D02*
X168554095Y-42254142D01*
X168554095Y-42254142D02*
X168601714Y-42158904D01*
X168601714Y-42158904D02*
X168601714Y-41968428D01*
X168601714Y-41968428D02*
X168554095Y-41873190D01*
X168554095Y-41873190D02*
X168506476Y-41825571D01*
X168506476Y-41825571D02*
X168411238Y-41777952D01*
%TO.C,Q1*%
X125271619Y-128584738D02*
X125224000Y-128679976D01*
X125224000Y-128679976D02*
X125128761Y-128775214D01*
X125128761Y-128775214D02*
X124985904Y-128918071D01*
X124985904Y-128918071D02*
X124938285Y-129013309D01*
X124938285Y-129013309D02*
X124938285Y-129108547D01*
X125176380Y-129060928D02*
X125128761Y-129156166D01*
X125128761Y-129156166D02*
X125033523Y-129251404D01*
X125033523Y-129251404D02*
X124843047Y-129299023D01*
X124843047Y-129299023D02*
X124509714Y-129299023D01*
X124509714Y-129299023D02*
X124319238Y-129251404D01*
X124319238Y-129251404D02*
X124224000Y-129156166D01*
X124224000Y-129156166D02*
X124176380Y-129060928D01*
X124176380Y-129060928D02*
X124176380Y-128870452D01*
X124176380Y-128870452D02*
X124224000Y-128775214D01*
X124224000Y-128775214D02*
X124319238Y-128679976D01*
X124319238Y-128679976D02*
X124509714Y-128632357D01*
X124509714Y-128632357D02*
X124843047Y-128632357D01*
X124843047Y-128632357D02*
X125033523Y-128679976D01*
X125033523Y-128679976D02*
X125128761Y-128775214D01*
X125128761Y-128775214D02*
X125176380Y-128870452D01*
X125176380Y-128870452D02*
X125176380Y-129060928D01*
X125176380Y-127679976D02*
X125176380Y-128251404D01*
X125176380Y-127965690D02*
X124176380Y-127965690D01*
X124176380Y-127965690D02*
X124319238Y-128060928D01*
X124319238Y-128060928D02*
X124414476Y-128156166D01*
X124414476Y-128156166D02*
X124462095Y-128251404D01*
%TO.C,C4*%
X157660442Y-128383966D02*
X157708061Y-128431585D01*
X157708061Y-128431585D02*
X157755680Y-128574442D01*
X157755680Y-128574442D02*
X157755680Y-128669680D01*
X157755680Y-128669680D02*
X157708061Y-128812537D01*
X157708061Y-128812537D02*
X157612823Y-128907775D01*
X157612823Y-128907775D02*
X157517585Y-128955394D01*
X157517585Y-128955394D02*
X157327109Y-129003013D01*
X157327109Y-129003013D02*
X157184252Y-129003013D01*
X157184252Y-129003013D02*
X156993776Y-128955394D01*
X156993776Y-128955394D02*
X156898538Y-128907775D01*
X156898538Y-128907775D02*
X156803300Y-128812537D01*
X156803300Y-128812537D02*
X156755680Y-128669680D01*
X156755680Y-128669680D02*
X156755680Y-128574442D01*
X156755680Y-128574442D02*
X156803300Y-128431585D01*
X156803300Y-128431585D02*
X156850919Y-128383966D01*
X157089014Y-127526823D02*
X157755680Y-127526823D01*
X156708061Y-127764918D02*
X157422347Y-128003013D01*
X157422347Y-128003013D02*
X157422347Y-127383966D01*
D13*
%TO.C,R29*%
X100309000Y-134204064D02*
X100309000Y-132749936D01*
X102129000Y-134204064D02*
X102129000Y-132749936D01*
%TO.C,R28*%
X98023000Y-134204064D02*
X98023000Y-132749936D01*
X99843000Y-134204064D02*
X99843000Y-132749936D01*
%TO.C,R27*%
X100811436Y-124608000D02*
X102265564Y-124608000D01*
X100811436Y-122788000D02*
X102265564Y-122788000D01*
%TO.C,R9*%
X100811436Y-122322000D02*
X102265564Y-122322000D01*
X100811436Y-120502000D02*
X102265564Y-120502000D01*
D14*
%TO.C,BT1*%
X174303000Y-52885000D02*
X178303000Y-52885000D01*
X176403000Y-54885000D02*
X176403000Y-50885000D01*
D13*
%TO.C,D5*%
X145830000Y-77145000D02*
X143145000Y-77145000D01*
X145830000Y-79065000D02*
X145830000Y-77145000D01*
X143145000Y-79065000D02*
X145830000Y-79065000D01*
%TO.C,R4*%
X147468000Y-104809936D02*
X147468000Y-106264064D01*
X145648000Y-104809936D02*
X145648000Y-106264064D01*
D15*
%TO.C,Q2*%
X108559000Y-124703000D02*
X108559000Y-126503000D01*
X111659000Y-126503000D02*
X111659000Y-124703000D01*
D14*
X111159000Y-123293000D02*
G75*
G03*
X111159000Y-123293000I-100000J0D01*
G01*
D13*
%TO.C,R7*%
X118385000Y-134279064D02*
X118385000Y-132824936D01*
X116565000Y-134279064D02*
X116565000Y-132824936D01*
%TO.C,C3*%
X154665000Y-128903252D02*
X154665000Y-127480748D01*
X156485000Y-128903252D02*
X156485000Y-127480748D01*
D15*
%TO.C,U7*%
X150012500Y-60247500D02*
X153517500Y-60247500D01*
X153517500Y-60247500D02*
X153517500Y-66752500D01*
X153517500Y-66752500D02*
X150012500Y-66752500D01*
X150012500Y-66752500D02*
X150012500Y-60247500D01*
D14*
X148565000Y-59510000D02*
G75*
G03*
X148565000Y-59510000I-100000J0D01*
G01*
D13*
%TO.C,R17*%
X161184000Y-49818936D02*
X161184000Y-51273064D01*
X159364000Y-49818936D02*
X159364000Y-51273064D01*
%TO.C,R22*%
X160755000Y-83973936D02*
X160755000Y-84428064D01*
X159285000Y-83973936D02*
X159285000Y-84428064D01*
%TO.C,Q4*%
X153477000Y-131954000D02*
X150307000Y-131954000D01*
X150307000Y-131954000D02*
X150307000Y-135839000D01*
X153477000Y-135839000D02*
X153477000Y-131954000D01*
%TO.C,C10*%
X142896000Y-70408748D02*
X142896000Y-71831252D01*
X141076000Y-70408748D02*
X141076000Y-71831252D01*
%TO.C,R19*%
X140427064Y-80751000D02*
X138972936Y-80751000D01*
X140427064Y-82571000D02*
X138972936Y-82571000D01*
%TO.C,D1*%
X123134000Y-135797000D02*
X123134000Y-133112000D01*
X121214000Y-135797000D02*
X123134000Y-135797000D01*
X121214000Y-133112000D02*
X121214000Y-135797000D01*
%TO.C,R2*%
X126725000Y-96743436D02*
X126725000Y-98197564D01*
X128545000Y-96743436D02*
X128545000Y-98197564D01*
%TO.C,R15*%
X157501000Y-49818936D02*
X157501000Y-51273064D01*
X155681000Y-49818936D02*
X155681000Y-51273064D01*
%TO.C,R18*%
X140427064Y-77195000D02*
X138972936Y-77195000D01*
X140427064Y-79015000D02*
X138972936Y-79015000D01*
%TO.C,R11*%
X158207064Y-134726000D02*
X156752936Y-134726000D01*
X158207064Y-136546000D02*
X156752936Y-136546000D01*
%TO.C,D2*%
X110434000Y-135797000D02*
X110434000Y-133112000D01*
X108514000Y-135797000D02*
X110434000Y-135797000D01*
X108514000Y-133112000D02*
X108514000Y-135797000D01*
%TO.C,R10*%
X163343000Y-127389936D02*
X163343000Y-128844064D01*
X161523000Y-127389936D02*
X161523000Y-128844064D01*
%TO.C,R20*%
X153570000Y-84428064D02*
X153570000Y-83973936D01*
X155040000Y-84428064D02*
X155040000Y-83973936D01*
%TO.C,R21*%
X141290064Y-57171000D02*
X139835936Y-57171000D01*
X141290064Y-55351000D02*
X139835936Y-55351000D01*
%TO.C,U6*%
X146939000Y-56932000D02*
X147739000Y-56932000D01*
X146939000Y-56932000D02*
X146139000Y-56932000D01*
X146939000Y-53812000D02*
X147739000Y-53812000D01*
X146939000Y-53812000D02*
X145139000Y-53812000D01*
%TO.C,R5*%
X151151000Y-104809936D02*
X151151000Y-106264064D01*
X149331000Y-104809936D02*
X149331000Y-106264064D01*
%TO.C,R6*%
X98531000Y-74202936D02*
X98531000Y-75657064D01*
X100351000Y-74202936D02*
X100351000Y-75657064D01*
%TO.C,J1*%
X188147000Y-134426000D02*
X188147000Y-131766000D01*
X165227000Y-134426000D02*
X165227000Y-131766000D01*
X162627000Y-134426000D02*
X162627000Y-133096000D01*
X165227000Y-134426000D02*
X188147000Y-134426000D01*
X165227000Y-131766000D02*
X188147000Y-131766000D01*
X163957000Y-134426000D02*
X162627000Y-134426000D01*
%TO.C,R8*%
X106574000Y-134279064D02*
X106574000Y-132824936D01*
X104754000Y-134279064D02*
X104754000Y-132824936D01*
D15*
%TO.C,Q5*%
X149632000Y-49399000D02*
X149632000Y-47599000D01*
X146532000Y-47599000D02*
X146532000Y-49399000D01*
D14*
X147232000Y-50809000D02*
G75*
G03*
X147232000Y-50809000I-100000J0D01*
G01*
D13*
%TO.C,D8*%
X161291000Y-74468000D02*
X161291000Y-79978000D01*
X164591000Y-74468000D02*
X161291000Y-74468000D01*
X164591000Y-74468000D02*
X164591000Y-79978000D01*
%TO.C,C5*%
X155850000Y-56524248D02*
X155850000Y-57946752D01*
X154030000Y-56524248D02*
X154030000Y-57946752D01*
%TO.C,R3*%
X143785000Y-104809936D02*
X143785000Y-106264064D01*
X141965000Y-104809936D02*
X141965000Y-106264064D01*
%TO.C,R14*%
X153564000Y-57942564D02*
X153564000Y-56488436D01*
X151744000Y-57942564D02*
X151744000Y-56488436D01*
D16*
%TO.C,U4*%
X139649000Y-135709000D02*
X141699000Y-135709000D01*
X141699000Y-135709000D02*
X141699000Y-133159000D01*
X141699000Y-133159000D02*
X139649000Y-133159000D01*
X139649000Y-133159000D02*
X139649000Y-135709000D01*
D13*
%TO.C,D4*%
X158116000Y-54402000D02*
X158116000Y-59912000D01*
X161416000Y-54402000D02*
X158116000Y-54402000D01*
X161416000Y-54402000D02*
X161416000Y-59912000D01*
%TO.C,J3*%
X133335000Y-49271000D02*
X133335000Y-128071000D01*
X132005000Y-46671000D02*
X133335000Y-46671000D01*
X130675000Y-49271000D02*
X133335000Y-49271000D01*
X130675000Y-49271000D02*
X130675000Y-128071000D01*
X133335000Y-46671000D02*
X133335000Y-48001000D01*
X130675000Y-128071000D02*
X133335000Y-128071000D01*
%TO.C,J2*%
X95335000Y-49271000D02*
X95335000Y-128071000D01*
X94005000Y-46671000D02*
X95335000Y-46671000D01*
X92675000Y-49271000D02*
X95335000Y-49271000D01*
X92675000Y-49271000D02*
X92675000Y-128071000D01*
X95335000Y-46671000D02*
X95335000Y-48001000D01*
X92675000Y-128071000D02*
X95335000Y-128071000D01*
%TO.C,R16*%
X153818000Y-49818936D02*
X153818000Y-51273064D01*
X151998000Y-49818936D02*
X151998000Y-51273064D01*
%TO.C,R25*%
X161070936Y-101494000D02*
X162525064Y-101494000D01*
X161070936Y-99674000D02*
X162525064Y-99674000D01*
%TO.C,R23*%
X142473000Y-42198936D02*
X142473000Y-43653064D01*
X144293000Y-42198936D02*
X144293000Y-43653064D01*
%TO.C,R24*%
X161070936Y-70972000D02*
X162525064Y-70972000D01*
X161070936Y-72792000D02*
X162525064Y-72792000D01*
%TO.C,D7*%
X147122000Y-40606000D02*
X147122000Y-43291000D01*
X149042000Y-40606000D02*
X147122000Y-40606000D01*
X149042000Y-43291000D02*
X149042000Y-40606000D01*
D14*
%TO.C,U2*%
X100321000Y-93153000D02*
G75*
G03*
X100321000Y-93153000I-100000J0D01*
G01*
D15*
X99776000Y-92178000D02*
X99776000Y-89178000D01*
X102916000Y-92178000D02*
X102916000Y-89178000D01*
D13*
%TO.C,C7*%
X142896000Y-60375748D02*
X142896000Y-61798252D01*
X141076000Y-60375748D02*
X141076000Y-61798252D01*
D15*
%TO.C,U5*%
X157454500Y-69570000D02*
X154354500Y-69570000D01*
X154354500Y-72670000D02*
X157454500Y-72670000D01*
X154354500Y-69570000D02*
X154354500Y-69775000D01*
X157454500Y-69570000D02*
X157454500Y-69775000D01*
X157454500Y-72670000D02*
X157454500Y-72465000D01*
X154354500Y-72670000D02*
X154354500Y-72465000D01*
D14*
X153654500Y-69920000D02*
G75*
G03*
X153654500Y-69920000I-100000J0D01*
G01*
D13*
%TO.C,C2*%
X146204000Y-131062252D02*
X146204000Y-129639748D01*
X148024000Y-131062252D02*
X148024000Y-129639748D01*
%TO.C,R12*%
X148309000Y-70892936D02*
X148309000Y-71347064D01*
X146839000Y-70892936D02*
X146839000Y-71347064D01*
%TO.C,D6*%
X145830000Y-80701000D02*
X143145000Y-80701000D01*
X145830000Y-82621000D02*
X145830000Y-80701000D01*
X143145000Y-82621000D02*
X145830000Y-82621000D01*
%TO.C,C9*%
X145690000Y-70408748D02*
X145690000Y-71831252D01*
X143870000Y-70408748D02*
X143870000Y-71831252D01*
%TO.C,R26*%
X141189064Y-67204000D02*
X139734936Y-67204000D01*
X141189064Y-65384000D02*
X139734936Y-65384000D01*
D15*
%TO.C,J4*%
X152737000Y-41748000D02*
X152737000Y-43268000D01*
X152737000Y-43268000D02*
X152942000Y-43268000D01*
X159937000Y-41748000D02*
X159937000Y-43268000D01*
X159937000Y-43268000D02*
X159732000Y-43268000D01*
D14*
X157787000Y-44358000D02*
G75*
G03*
X157787000Y-44358000I-100000J0D01*
G01*
D15*
X152737000Y-38968000D02*
X152737000Y-38608000D01*
X152737000Y-38608000D02*
X159937000Y-38608000D01*
X159937000Y-38608000D02*
X159937000Y-38968000D01*
D13*
%TO.C,C1*%
X142346000Y-131062252D02*
X142346000Y-129639748D01*
X144166000Y-131062252D02*
X144166000Y-129639748D01*
%TO.C,R13*%
X151024000Y-71847064D02*
X151024000Y-70392936D01*
X149204000Y-71847064D02*
X149204000Y-70392936D01*
%TO.C,C6*%
X158009000Y-83489748D02*
X158009000Y-84912252D01*
X156189000Y-83489748D02*
X156189000Y-84912252D01*
%TO.C,R1*%
X135996000Y-99602936D02*
X135996000Y-101057064D01*
X137816000Y-99602936D02*
X137816000Y-101057064D01*
%TO.C,U3*%
D15*
X103401500Y-110960000D02*
G75*
G03*
X103401500Y-110960000I-63500J0D01*
G01*
X98388000Y-112510000D02*
X98388000Y-116410000D01*
X103288000Y-112510000D02*
X103288000Y-116410000D01*
D13*
%TO.C,C8*%
X168527252Y-41042000D02*
X167104748Y-41042000D01*
X168527252Y-39222000D02*
X167104748Y-39222000D01*
D15*
%TO.C,Q1*%
X120624000Y-126414500D02*
X120624000Y-128214500D01*
X123724000Y-128214500D02*
X123724000Y-126414500D01*
D14*
X123224000Y-125004500D02*
G75*
G03*
X123224000Y-125004500I-100000J0D01*
G01*
D13*
%TO.C,C4*%
X158328300Y-128928552D02*
X158328300Y-127506048D01*
X160148300Y-128928552D02*
X160148300Y-127506048D01*
%TD*%
M02*
