%TF.GenerationSoftware,KiCad,Pcbnew,(7.0.0)*%
%TF.CreationDate,2023-04-24T13:22:53+02:00*%
%TF.ProjectId,EnviroHAT,456e7669-726f-4484-9154-2e6b69636164,rev?*%
%TF.SameCoordinates,Original*%
%TF.FileFunction,Soldermask,Top*%
%TF.FilePolarity,Negative*%
%FSLAX46Y46*%
G04 Gerber Fmt 4.6, Leading zero omitted, Abs format (unit mm)*
G04 Created by KiCad (PCBNEW (7.0.0)) date 2023-04-24 13:22:53*
%MOMM*%
%LPD*%
G01*
G04 APERTURE LIST*
G04 Aperture macros list*
%AMRoundRect*
0 Rectangle with rounded corners*
0 $1 Rounding radius*
0 $2 $3 $4 $5 $6 $7 $8 $9 X,Y pos of 4 corners*
0 Add a 4 corners polygon primitive as box body*
4,1,4,$2,$3,$4,$5,$6,$7,$8,$9,$2,$3,0*
0 Add four circle primitives for the rounded corners*
1,1,$1+$1,$2,$3*
1,1,$1+$1,$4,$5*
1,1,$1+$1,$6,$7*
1,1,$1+$1,$8,$9*
0 Add four rect primitives between the rounded corners*
20,1,$1+$1,$2,$3,$4,$5,0*
20,1,$1+$1,$4,$5,$6,$7,0*
20,1,$1+$1,$6,$7,$8,$9,0*
20,1,$1+$1,$8,$9,$2,$3,0*%
G04 Aperture macros list end*
%ADD10RoundRect,0.243750X0.243750X0.456250X-0.243750X0.456250X-0.243750X-0.456250X0.243750X-0.456250X0*%
%ADD11RoundRect,0.250000X-0.625000X0.400000X-0.625000X-0.400000X0.625000X-0.400000X0.625000X0.400000X0*%
%ADD12RoundRect,0.088500X-0.206500X0.516500X-0.206500X-0.516500X0.206500X-0.516500X0.206500X0.516500X0*%
%ADD13RoundRect,0.250000X0.625000X-0.400000X0.625000X0.400000X-0.625000X0.400000X-0.625000X-0.400000X0*%
%ADD14RoundRect,0.250000X0.625000X-0.312500X0.625000X0.312500X-0.625000X0.312500X-0.625000X-0.312500X0*%
%ADD15RoundRect,0.250000X-0.312500X-0.625000X0.312500X-0.625000X0.312500X0.625000X-0.312500X0.625000X0*%
%ADD16RoundRect,0.250000X0.650000X-0.325000X0.650000X0.325000X-0.650000X0.325000X-0.650000X-0.325000X0*%
%ADD17RoundRect,0.093000X-0.562000X0.372000X-0.562000X-0.372000X0.562000X-0.372000X0.562000X0.372000X0*%
%ADD18RoundRect,0.131000X-0.524000X1.489000X-0.524000X-1.489000X0.524000X-1.489000X0.524000X1.489000X0*%
%ADD19RoundRect,0.250000X-0.450000X0.262500X-0.450000X-0.262500X0.450000X-0.262500X0.450000X0.262500X0*%
%ADD20RoundRect,0.250000X-1.075000X0.375000X-1.075000X-0.375000X1.075000X-0.375000X1.075000X0.375000X0*%
%ADD21RoundRect,0.250000X-0.650000X0.325000X-0.650000X-0.325000X0.650000X-0.325000X0.650000X0.325000X0*%
%ADD22RoundRect,0.250000X0.312500X0.625000X-0.312500X0.625000X-0.312500X-0.625000X0.312500X-0.625000X0*%
%ADD23RoundRect,0.243750X0.456250X-0.243750X0.456250X0.243750X-0.456250X0.243750X-0.456250X-0.243750X0*%
%ADD24RoundRect,0.250000X-0.625000X0.312500X-0.625000X-0.312500X0.625000X-0.312500X0.625000X0.312500X0*%
%ADD25RoundRect,0.250000X0.450000X-0.262500X0.450000X0.262500X-0.450000X0.262500X-0.450000X-0.262500X0*%
%ADD26RoundRect,0.250000X0.400000X0.625000X-0.400000X0.625000X-0.400000X-0.625000X0.400000X-0.625000X0*%
%ADD27RoundRect,0.150000X-0.512500X-0.150000X0.512500X-0.150000X0.512500X0.150000X-0.512500X0.150000X0*%
%ADD28R,1.700000X1.700000*%
%ADD29O,1.700000X1.700000*%
%ADD30RoundRect,0.088500X0.206500X-0.516500X0.206500X0.516500X-0.206500X0.516500X-0.206500X-0.516500X0*%
%ADD31RoundRect,0.250000X-0.650000X1.000000X-0.650000X-1.000000X0.650000X-1.000000X0.650000X1.000000X0*%
%ADD32C,4.000000*%
%ADD33C,2.700000*%
%ADD34RoundRect,1.625000X1.625000X-2.125000X1.625000X2.125000X-1.625000X2.125000X-1.625000X-2.125000X0*%
%ADD35R,0.510000X0.500000*%
%ADD36RoundRect,0.250000X-0.400000X-0.625000X0.400000X-0.625000X0.400000X0.625000X-0.400000X0.625000X0*%
%ADD37RoundRect,0.243750X-0.456250X0.243750X-0.456250X-0.243750X0.456250X-0.243750X0.456250X0.243750X0*%
%ADD38RoundRect,0.007500X0.117500X-0.412500X0.117500X0.412500X-0.117500X0.412500X-0.117500X-0.412500X0*%
%ADD39R,2.500000X1.600000*%
%ADD40R,0.860000X0.260000*%
%ADD41R,1.575000X2.450000*%
%ADD42C,1.524000*%
%ADD43R,0.400000X1.250000*%
%ADD44R,0.600000X1.350000*%
%ADD45O,1.070000X2.140000*%
%ADD46C,1.300000*%
%ADD47R,0.600000X1.550000*%
%ADD48RoundRect,0.250000X0.325000X0.650000X-0.325000X0.650000X-0.325000X-0.650000X0.325000X-0.650000X0*%
G04 APERTURE END LIST*
D10*
%TO.C,D5*%
X145082500Y-78105000D03*
X143207500Y-78105000D03*
%TD*%
D11*
%TO.C,R4*%
X146558000Y-100965000D03*
X146558000Y-104065000D03*
%TD*%
D12*
%TO.C,Q2*%
X120396000Y-126858000D03*
X119446000Y-124348000D03*
X121346000Y-124348000D03*
%TD*%
D13*
%TO.C,R28*%
X129159000Y-117628000D03*
X129159000Y-114528000D03*
%TD*%
D14*
%TO.C,R7*%
X127762000Y-132089500D03*
X127762000Y-135014500D03*
%TD*%
D15*
%TO.C,R27*%
X120142000Y-102795000D03*
X123067000Y-102795000D03*
%TD*%
D16*
%TO.C,C3*%
X155575000Y-129667000D03*
X155575000Y-126717000D03*
%TD*%
D17*
%TO.C,U7*%
X148420000Y-61210000D03*
X148420000Y-63500000D03*
X148420000Y-65790000D03*
D18*
X155110000Y-63500000D03*
%TD*%
D11*
%TO.C,R17*%
X160274000Y-48996000D03*
X160274000Y-52096000D03*
%TD*%
D19*
%TO.C,R22*%
X160020000Y-83288500D03*
X160020000Y-85113500D03*
%TD*%
D20*
%TO.C,Q4*%
X151892000Y-132839000D03*
X151892000Y-135639000D03*
%TD*%
D21*
%TO.C,C10*%
X141986000Y-69645000D03*
X141986000Y-72595000D03*
%TD*%
D22*
%TO.C,R19*%
X141162500Y-81661000D03*
X138237500Y-81661000D03*
%TD*%
D15*
%TO.C,R9*%
X120142000Y-100509000D03*
X123067000Y-100509000D03*
%TD*%
D23*
%TO.C,D1*%
X132461000Y-133174500D03*
X132461000Y-135049500D03*
%TD*%
D24*
%TO.C,R2*%
X127889000Y-91059000D03*
X127889000Y-93984000D03*
%TD*%
D11*
%TO.C,R15*%
X156591000Y-48996000D03*
X156591000Y-52096000D03*
%TD*%
D22*
%TO.C,R18*%
X141162500Y-78105000D03*
X138237500Y-78105000D03*
%TD*%
%TO.C,R11*%
X158942500Y-135636000D03*
X156017500Y-135636000D03*
%TD*%
D23*
%TO.C,D2*%
X122682000Y-133428500D03*
X122682000Y-135303500D03*
%TD*%
D11*
%TO.C,R10*%
X162433000Y-126567000D03*
X162433000Y-129667000D03*
%TD*%
D25*
%TO.C,R20*%
X154305000Y-85113500D03*
X154305000Y-83288500D03*
%TD*%
D26*
%TO.C,R21*%
X142113000Y-56261000D03*
X139013000Y-56261000D03*
%TD*%
D27*
%TO.C,U6*%
X145801500Y-54422000D03*
X145801500Y-56322000D03*
X148076500Y-55372000D03*
%TD*%
D11*
%TO.C,R5*%
X150241000Y-100965000D03*
X150241000Y-104065000D03*
%TD*%
D24*
%TO.C,R6*%
X122428000Y-93918500D03*
X122428000Y-90993500D03*
%TD*%
D28*
%TO.C,J1*%
X163956999Y-133095999D03*
D29*
X166496999Y-133095999D03*
X169036999Y-133095999D03*
X171576999Y-133095999D03*
X174116999Y-133095999D03*
X176656999Y-133095999D03*
X179196999Y-133095999D03*
X181736999Y-133095999D03*
X184276999Y-133095999D03*
X186816999Y-133095999D03*
%TD*%
D14*
%TO.C,R8*%
X135890000Y-114690500D03*
X135890000Y-117615500D03*
%TD*%
D30*
%TO.C,Q5*%
X147132000Y-49754000D03*
X149032000Y-49754000D03*
X148082000Y-47244000D03*
%TD*%
D31*
%TO.C,D8*%
X162941000Y-75978000D03*
X162941000Y-79978000D03*
%TD*%
D32*
%TO.C,BT1*%
X184767000Y-110404000D03*
X168767000Y-55204000D03*
D33*
X184767000Y-46984000D03*
D34*
X176767000Y-43154000D03*
X176767000Y-122454000D03*
%TD*%
D21*
%TO.C,C5*%
X154940000Y-55760500D03*
X154940000Y-58710500D03*
%TD*%
D11*
%TO.C,R3*%
X142875000Y-100965000D03*
X142875000Y-104065000D03*
%TD*%
D14*
%TO.C,R14*%
X152654000Y-58678000D03*
X152654000Y-55753000D03*
%TD*%
D35*
%TO.C,U4*%
X139953999Y-135381999D03*
X139953999Y-134743999D03*
X139953999Y-134123999D03*
X139953999Y-133485999D03*
X141393999Y-133485999D03*
X141393999Y-134123999D03*
X141393999Y-134743999D03*
X141393999Y-135381999D03*
%TD*%
D31*
%TO.C,D4*%
X159766000Y-55912000D03*
X159766000Y-59912000D03*
%TD*%
D11*
%TO.C,R16*%
X152908000Y-48996000D03*
X152908000Y-52096000D03*
%TD*%
D15*
%TO.C,R25*%
X160335500Y-100584000D03*
X163260500Y-100584000D03*
%TD*%
D24*
%TO.C,R23*%
X143383000Y-41463500D03*
X143383000Y-44388500D03*
%TD*%
D36*
%TO.C,R24*%
X160248000Y-71882000D03*
X163348000Y-71882000D03*
%TD*%
D37*
%TO.C,D7*%
X148082000Y-41353500D03*
X148082000Y-43228500D03*
%TD*%
D38*
%TO.C,U2*%
X138702000Y-89935500D03*
X139152000Y-89935500D03*
X139602000Y-89935500D03*
X140052000Y-89935500D03*
X140502000Y-89935500D03*
X140952000Y-89935500D03*
X140952000Y-87065500D03*
X140502000Y-87065500D03*
X140052000Y-87065500D03*
X139602000Y-87065500D03*
X139152000Y-87065500D03*
X138702000Y-87065500D03*
D39*
X139826999Y-88500499D03*
%TD*%
D21*
%TO.C,C7*%
X141986000Y-59612000D03*
X141986000Y-62562000D03*
%TD*%
D40*
%TO.C,U5*%
X154469499Y-70119999D03*
X154469499Y-70619999D03*
X154469499Y-71119999D03*
X154469499Y-71619999D03*
X154469499Y-72119999D03*
X157339499Y-72119999D03*
X157339499Y-71619999D03*
X157339499Y-71119999D03*
X157339499Y-70619999D03*
X157339499Y-70119999D03*
D41*
X155904499Y-71119999D03*
%TD*%
D13*
%TO.C,R29*%
X131445000Y-117628000D03*
X131445000Y-114528000D03*
%TD*%
D16*
%TO.C,C2*%
X147114000Y-131826000D03*
X147114000Y-128876000D03*
%TD*%
D42*
%TO.C,U8*%
X118110000Y-46990000D03*
X118110000Y-49530000D03*
X118110000Y-52070000D03*
X118110000Y-54610000D03*
X118110000Y-57150000D03*
X118110000Y-59690000D03*
X118110000Y-62230000D03*
X118110000Y-64770000D03*
X118110000Y-67310000D03*
X118110000Y-69850000D03*
X118110000Y-72390000D03*
X118110000Y-74930000D03*
X118110000Y-77470000D03*
X118110000Y-80010000D03*
X118110000Y-82550000D03*
X118110000Y-85090000D03*
X118110000Y-87630000D03*
X118110000Y-90170000D03*
X118110000Y-92710000D03*
X118110000Y-95250000D03*
X118110000Y-97790000D03*
X118110000Y-100330000D03*
X118110000Y-102870000D03*
X118110000Y-105410000D03*
X134620000Y-105410000D03*
X134620000Y-102870000D03*
X134620000Y-100330000D03*
X134620000Y-97790000D03*
X134620000Y-95250000D03*
X134620000Y-92710000D03*
X134620000Y-90170000D03*
X134620000Y-87630000D03*
X134620000Y-85090000D03*
X134620000Y-82550000D03*
X134620000Y-80010000D03*
X134620000Y-77470000D03*
X134620000Y-74930000D03*
X134620000Y-72390000D03*
X134620000Y-69850000D03*
X134620000Y-67310000D03*
X134620000Y-64770000D03*
X134620000Y-62230000D03*
X134620000Y-59690000D03*
X134620000Y-57150000D03*
X134620000Y-54610000D03*
X134620000Y-52070000D03*
X134620000Y-49530000D03*
X134620000Y-46990000D03*
%TD*%
D19*
%TO.C,R12*%
X147574000Y-70207500D03*
X147574000Y-72032500D03*
%TD*%
D10*
%TO.C,D6*%
X145082500Y-81661000D03*
X143207500Y-81661000D03*
%TD*%
D21*
%TO.C,C9*%
X144780000Y-69645000D03*
X144780000Y-72595000D03*
%TD*%
D26*
%TO.C,R26*%
X142012000Y-66294000D03*
X138912000Y-66294000D03*
%TD*%
D43*
%TO.C,J4*%
X157636999Y-42982999D03*
X156986999Y-42982999D03*
X156336999Y-42982999D03*
X155686999Y-42982999D03*
X155036999Y-42982999D03*
D44*
X155536999Y-40332999D03*
X157136999Y-40332999D03*
D45*
X152736999Y-40357999D03*
D46*
X153912000Y-43008000D03*
X158762000Y-43008000D03*
D45*
X159936999Y-40357999D03*
%TD*%
D16*
%TO.C,C1*%
X143256000Y-131826000D03*
X143256000Y-128876000D03*
%TD*%
D14*
%TO.C,R13*%
X150114000Y-72582500D03*
X150114000Y-69657500D03*
%TD*%
D21*
%TO.C,C6*%
X157099000Y-82726000D03*
X157099000Y-85676000D03*
%TD*%
D24*
%TO.C,R1*%
X139192000Y-94103000D03*
X139192000Y-97028000D03*
%TD*%
D47*
%TO.C,U3*%
X146049999Y-113377999D03*
X144779999Y-113377999D03*
X143509999Y-113377999D03*
X142239999Y-113377999D03*
X142239999Y-118777999D03*
X143509999Y-118777999D03*
X144779999Y-118777999D03*
X146049999Y-118777999D03*
%TD*%
D48*
%TO.C,C8*%
X169291000Y-40132000D03*
X166341000Y-40132000D03*
%TD*%
D12*
%TO.C,Q1*%
X132461000Y-128569500D03*
X131511000Y-126059500D03*
X133411000Y-126059500D03*
%TD*%
D16*
%TO.C,C4*%
X159238300Y-129692300D03*
X159238300Y-126742300D03*
%TD*%
M02*
