%TF.GenerationSoftware,KiCad,Pcbnew,(7.0.0)*%
%TF.CreationDate,2023-04-13T21:13:31+02:00*%
%TF.ProjectId,EnviroHAT,456e7669-726f-4484-9154-2e6b69636164,rev?*%
%TF.SameCoordinates,Original*%
%TF.FileFunction,Soldermask,Top*%
%TF.FilePolarity,Negative*%
%FSLAX46Y46*%
G04 Gerber Fmt 4.6, Leading zero omitted, Abs format (unit mm)*
G04 Created by KiCad (PCBNEW (7.0.0)) date 2023-04-13 21:13:31*
%MOMM*%
%LPD*%
G01*
G04 APERTURE LIST*
G04 Aperture macros list*
%AMRoundRect*
0 Rectangle with rounded corners*
0 $1 Rounding radius*
0 $2 $3 $4 $5 $6 $7 $8 $9 X,Y pos of 4 corners*
0 Add a 4 corners polygon primitive as box body*
4,1,4,$2,$3,$4,$5,$6,$7,$8,$9,$2,$3,0*
0 Add four circle primitives for the rounded corners*
1,1,$1+$1,$2,$3*
1,1,$1+$1,$4,$5*
1,1,$1+$1,$6,$7*
1,1,$1+$1,$8,$9*
0 Add four rect primitives between the rounded corners*
20,1,$1+$1,$2,$3,$4,$5,0*
20,1,$1+$1,$4,$5,$6,$7,0*
20,1,$1+$1,$6,$7,$8,$9,0*
20,1,$1+$1,$8,$9,$2,$3,0*%
G04 Aperture macros list end*
%ADD10RoundRect,0.250000X0.625000X-0.400000X0.625000X0.400000X-0.625000X0.400000X-0.625000X-0.400000X0*%
%ADD11RoundRect,0.250000X-0.312500X-0.625000X0.312500X-0.625000X0.312500X0.625000X-0.312500X0.625000X0*%
%ADD12C,2.000000*%
%ADD13RoundRect,0.243750X0.243750X0.456250X-0.243750X0.456250X-0.243750X-0.456250X0.243750X-0.456250X0*%
%ADD14RoundRect,0.250000X-0.625000X0.400000X-0.625000X-0.400000X0.625000X-0.400000X0.625000X0.400000X0*%
%ADD15RoundRect,0.088500X-0.206500X0.516500X-0.206500X-0.516500X0.206500X-0.516500X0.206500X0.516500X0*%
%ADD16RoundRect,0.250000X0.625000X-0.312500X0.625000X0.312500X-0.625000X0.312500X-0.625000X-0.312500X0*%
%ADD17RoundRect,0.250000X0.650000X-0.325000X0.650000X0.325000X-0.650000X0.325000X-0.650000X-0.325000X0*%
%ADD18RoundRect,0.093000X-0.562000X0.372000X-0.562000X-0.372000X0.562000X-0.372000X0.562000X0.372000X0*%
%ADD19RoundRect,0.131000X-0.524000X1.489000X-0.524000X-1.489000X0.524000X-1.489000X0.524000X1.489000X0*%
%ADD20RoundRect,0.250000X-0.450000X0.262500X-0.450000X-0.262500X0.450000X-0.262500X0.450000X0.262500X0*%
%ADD21RoundRect,0.250000X-1.075000X0.375000X-1.075000X-0.375000X1.075000X-0.375000X1.075000X0.375000X0*%
%ADD22RoundRect,0.250000X-0.650000X0.325000X-0.650000X-0.325000X0.650000X-0.325000X0.650000X0.325000X0*%
%ADD23RoundRect,0.250000X0.312500X0.625000X-0.312500X0.625000X-0.312500X-0.625000X0.312500X-0.625000X0*%
%ADD24RoundRect,0.243750X0.456250X-0.243750X0.456250X0.243750X-0.456250X0.243750X-0.456250X-0.243750X0*%
%ADD25RoundRect,0.250000X-0.625000X0.312500X-0.625000X-0.312500X0.625000X-0.312500X0.625000X0.312500X0*%
%ADD26RoundRect,0.250000X0.450000X-0.262500X0.450000X0.262500X-0.450000X0.262500X-0.450000X-0.262500X0*%
%ADD27RoundRect,0.250000X0.400000X0.625000X-0.400000X0.625000X-0.400000X-0.625000X0.400000X-0.625000X0*%
%ADD28RoundRect,0.150000X-0.512500X-0.150000X0.512500X-0.150000X0.512500X0.150000X-0.512500X0.150000X0*%
%ADD29R,1.700000X1.700000*%
%ADD30O,1.700000X1.700000*%
%ADD31RoundRect,0.088500X0.206500X-0.516500X0.206500X0.516500X-0.206500X0.516500X-0.206500X-0.516500X0*%
%ADD32RoundRect,0.250000X-0.650000X1.000000X-0.650000X-1.000000X0.650000X-1.000000X0.650000X1.000000X0*%
%ADD33R,0.510000X0.500000*%
%ADD34RoundRect,0.250000X-0.400000X-0.625000X0.400000X-0.625000X0.400000X0.625000X-0.400000X0.625000X0*%
%ADD35RoundRect,0.243750X-0.456250X0.243750X-0.456250X-0.243750X0.456250X-0.243750X0.456250X0.243750X0*%
%ADD36RoundRect,0.007500X0.117500X-0.412500X0.117500X0.412500X-0.117500X0.412500X-0.117500X-0.412500X0*%
%ADD37R,2.500000X1.600000*%
%ADD38R,0.860000X0.260000*%
%ADD39R,1.575000X2.450000*%
%ADD40R,0.400000X1.250000*%
%ADD41C,1.300000*%
%ADD42O,1.070000X2.140000*%
%ADD43R,0.600000X1.350000*%
%ADD44R,0.600000X1.550000*%
%ADD45RoundRect,0.250000X0.325000X0.650000X-0.325000X0.650000X-0.325000X-0.650000X0.325000X-0.650000X0*%
G04 APERTURE END LIST*
D10*
%TO.C,R29*%
X101219000Y-135027000D03*
X101219000Y-131927000D03*
%TD*%
%TO.C,R28*%
X98933000Y-135027000D03*
X98933000Y-131927000D03*
%TD*%
D11*
%TO.C,R27*%
X100076000Y-123698000D03*
X103001000Y-123698000D03*
%TD*%
%TO.C,R9*%
X100076000Y-121412000D03*
X103001000Y-121412000D03*
%TD*%
D12*
%TO.C,BT1*%
X176403000Y-116685000D03*
X176403000Y-45085000D03*
%TD*%
D13*
%TO.C,D5*%
X145082500Y-78105000D03*
X143207500Y-78105000D03*
%TD*%
D14*
%TO.C,R4*%
X146558000Y-103987000D03*
X146558000Y-107087000D03*
%TD*%
D15*
%TO.C,Q2*%
X111059000Y-124348000D03*
X110109000Y-126858000D03*
X109159000Y-124348000D03*
%TD*%
D16*
%TO.C,R7*%
X117475000Y-135014500D03*
X117475000Y-132089500D03*
%TD*%
D17*
%TO.C,C3*%
X155575000Y-129667000D03*
X155575000Y-126717000D03*
%TD*%
D18*
%TO.C,U7*%
X148420000Y-61210000D03*
X148420000Y-63500000D03*
X148420000Y-65790000D03*
D19*
X155110000Y-63500000D03*
%TD*%
D14*
%TO.C,R17*%
X160274000Y-48996000D03*
X160274000Y-52096000D03*
%TD*%
D20*
%TO.C,R22*%
X160020000Y-83288500D03*
X160020000Y-85113500D03*
%TD*%
D21*
%TO.C,Q4*%
X151892000Y-132839000D03*
X151892000Y-135639000D03*
%TD*%
D22*
%TO.C,C10*%
X141986000Y-69645000D03*
X141986000Y-72595000D03*
%TD*%
D23*
%TO.C,R19*%
X141162500Y-81661000D03*
X138237500Y-81661000D03*
%TD*%
D24*
%TO.C,D1*%
X122174000Y-135049500D03*
X122174000Y-133174500D03*
%TD*%
D25*
%TO.C,R2*%
X127635000Y-96008000D03*
X127635000Y-98933000D03*
%TD*%
D14*
%TO.C,R15*%
X156591000Y-48996000D03*
X156591000Y-52096000D03*
%TD*%
D23*
%TO.C,R18*%
X141162500Y-78105000D03*
X138237500Y-78105000D03*
%TD*%
%TO.C,R11*%
X158942500Y-135636000D03*
X156017500Y-135636000D03*
%TD*%
D24*
%TO.C,D2*%
X109474000Y-135049500D03*
X109474000Y-133174500D03*
%TD*%
D14*
%TO.C,R10*%
X162433000Y-126567000D03*
X162433000Y-129667000D03*
%TD*%
D26*
%TO.C,R20*%
X154305000Y-85113500D03*
X154305000Y-83288500D03*
%TD*%
D27*
%TO.C,R21*%
X142113000Y-56261000D03*
X139013000Y-56261000D03*
%TD*%
D28*
%TO.C,U6*%
X145801500Y-54422000D03*
X145801500Y-56322000D03*
X148076500Y-55372000D03*
%TD*%
D14*
%TO.C,R5*%
X150241000Y-103987000D03*
X150241000Y-107087000D03*
%TD*%
D25*
%TO.C,R6*%
X99441000Y-73467500D03*
X99441000Y-76392500D03*
%TD*%
D29*
%TO.C,J1*%
X163956999Y-133095999D03*
D30*
X166496999Y-133095999D03*
X169036999Y-133095999D03*
X171576999Y-133095999D03*
X174116999Y-133095999D03*
X176656999Y-133095999D03*
X179196999Y-133095999D03*
X181736999Y-133095999D03*
X184276999Y-133095999D03*
X186816999Y-133095999D03*
%TD*%
D16*
%TO.C,R8*%
X105664000Y-135014500D03*
X105664000Y-132089500D03*
%TD*%
D31*
%TO.C,Q5*%
X147132000Y-49754000D03*
X148082000Y-47244000D03*
X149032000Y-49754000D03*
%TD*%
D32*
%TO.C,D8*%
X162941000Y-75978000D03*
X162941000Y-79978000D03*
%TD*%
D22*
%TO.C,C5*%
X154940000Y-55760500D03*
X154940000Y-58710500D03*
%TD*%
D14*
%TO.C,R3*%
X142875000Y-103987000D03*
X142875000Y-107087000D03*
%TD*%
D16*
%TO.C,R14*%
X152654000Y-58678000D03*
X152654000Y-55753000D03*
%TD*%
D33*
%TO.C,U4*%
X139953999Y-135381999D03*
X139953999Y-134743999D03*
X139953999Y-134123999D03*
X139953999Y-133485999D03*
X141393999Y-133485999D03*
X141393999Y-134123999D03*
X141393999Y-134743999D03*
X141393999Y-135381999D03*
%TD*%
D32*
%TO.C,D4*%
X159766000Y-55912000D03*
X159766000Y-59912000D03*
%TD*%
D29*
%TO.C,J3*%
X132004999Y-48000999D03*
D30*
X132004999Y-50540999D03*
X132004999Y-53080999D03*
X132004999Y-55620999D03*
X132004999Y-58160999D03*
X132004999Y-60700999D03*
X132004999Y-63240999D03*
X132004999Y-65780999D03*
X132004999Y-68320999D03*
X132004999Y-70860999D03*
X132004999Y-73400999D03*
X132004999Y-75940999D03*
X132004999Y-78480999D03*
X132004999Y-81020999D03*
X132004999Y-83560999D03*
X132004999Y-86100999D03*
X132004999Y-88640999D03*
X132004999Y-91180999D03*
X132004999Y-93720999D03*
X132004999Y-96260999D03*
X132004999Y-98800999D03*
X132004999Y-101340999D03*
X132004999Y-103880999D03*
X132004999Y-106420999D03*
X132004999Y-108960999D03*
X132004999Y-111500999D03*
X132004999Y-114040999D03*
X132004999Y-116580999D03*
X132004999Y-119120999D03*
X132004999Y-121660999D03*
X132004999Y-124200999D03*
X132004999Y-126740999D03*
%TD*%
D29*
%TO.C,J2*%
X94004999Y-48000999D03*
D30*
X94004999Y-50540999D03*
X94004999Y-53080999D03*
X94004999Y-55620999D03*
X94004999Y-58160999D03*
X94004999Y-60700999D03*
X94004999Y-63240999D03*
X94004999Y-65780999D03*
X94004999Y-68320999D03*
X94004999Y-70860999D03*
X94004999Y-73400999D03*
X94004999Y-75940999D03*
X94004999Y-78480999D03*
X94004999Y-81020999D03*
X94004999Y-83560999D03*
X94004999Y-86100999D03*
X94004999Y-88640999D03*
X94004999Y-91180999D03*
X94004999Y-93720999D03*
X94004999Y-96260999D03*
X94004999Y-98800999D03*
X94004999Y-101340999D03*
X94004999Y-103880999D03*
X94004999Y-106420999D03*
X94004999Y-108960999D03*
X94004999Y-111500999D03*
X94004999Y-114040999D03*
X94004999Y-116580999D03*
X94004999Y-119120999D03*
X94004999Y-121660999D03*
X94004999Y-124200999D03*
X94004999Y-126740999D03*
%TD*%
D14*
%TO.C,R16*%
X152908000Y-48996000D03*
X152908000Y-52096000D03*
%TD*%
D11*
%TO.C,R25*%
X160335500Y-100584000D03*
X163260500Y-100584000D03*
%TD*%
D25*
%TO.C,R23*%
X143383000Y-41463500D03*
X143383000Y-44388500D03*
%TD*%
D34*
%TO.C,R24*%
X160248000Y-71882000D03*
X163348000Y-71882000D03*
%TD*%
D35*
%TO.C,D7*%
X148082000Y-41353500D03*
X148082000Y-43228500D03*
%TD*%
D36*
%TO.C,U2*%
X100221000Y-92113000D03*
X100671000Y-92113000D03*
X101121000Y-92113000D03*
X101571000Y-92113000D03*
X102021000Y-92113000D03*
X102471000Y-92113000D03*
X102471000Y-89243000D03*
X102021000Y-89243000D03*
X101571000Y-89243000D03*
X101121000Y-89243000D03*
X100671000Y-89243000D03*
X100221000Y-89243000D03*
D37*
X101345999Y-90677999D03*
%TD*%
D22*
%TO.C,C7*%
X141986000Y-59612000D03*
X141986000Y-62562000D03*
%TD*%
D38*
%TO.C,U5*%
X154469499Y-70119999D03*
X154469499Y-70619999D03*
X154469499Y-71119999D03*
X154469499Y-71619999D03*
X154469499Y-72119999D03*
X157339499Y-72119999D03*
X157339499Y-71619999D03*
X157339499Y-71119999D03*
X157339499Y-70619999D03*
X157339499Y-70119999D03*
D39*
X155904499Y-71119999D03*
%TD*%
D17*
%TO.C,C2*%
X147114000Y-131826000D03*
X147114000Y-128876000D03*
%TD*%
D20*
%TO.C,R12*%
X147574000Y-70207500D03*
X147574000Y-72032500D03*
%TD*%
D13*
%TO.C,D6*%
X145082500Y-81661000D03*
X143207500Y-81661000D03*
%TD*%
D22*
%TO.C,C9*%
X144780000Y-69645000D03*
X144780000Y-72595000D03*
%TD*%
D27*
%TO.C,R26*%
X142012000Y-66294000D03*
X138912000Y-66294000D03*
%TD*%
D40*
%TO.C,J4*%
X157636999Y-42982999D03*
X156986999Y-42982999D03*
X156336999Y-42982999D03*
X155686999Y-42982999D03*
X155036999Y-42982999D03*
D41*
X158762000Y-43008000D03*
X153912000Y-43008000D03*
D42*
X159936999Y-40357999D03*
X152736999Y-40357999D03*
D43*
X157136999Y-40332999D03*
X155536999Y-40332999D03*
%TD*%
D17*
%TO.C,C1*%
X143256000Y-131826000D03*
X143256000Y-128876000D03*
%TD*%
D16*
%TO.C,R13*%
X150114000Y-72582500D03*
X150114000Y-69657500D03*
%TD*%
D22*
%TO.C,C6*%
X157099000Y-82726000D03*
X157099000Y-85676000D03*
%TD*%
D25*
%TO.C,R1*%
X136906000Y-98867500D03*
X136906000Y-101792500D03*
%TD*%
D44*
%TO.C,U3*%
X98932999Y-117159999D03*
X100202999Y-117159999D03*
X102742999Y-117159999D03*
X98932999Y-111759999D03*
X100202999Y-111759999D03*
X102742999Y-111759999D03*
X101472999Y-117159999D03*
X101472999Y-111759999D03*
%TD*%
D45*
%TO.C,C8*%
X169291000Y-40132000D03*
X166341000Y-40132000D03*
%TD*%
D15*
%TO.C,Q1*%
X123124000Y-126059500D03*
X122174000Y-128569500D03*
X121224000Y-126059500D03*
%TD*%
D17*
%TO.C,C4*%
X159238300Y-129692300D03*
X159238300Y-126742300D03*
%TD*%
M02*
