%TF.GenerationSoftware,KiCad,Pcbnew,(7.0.0)*%
%TF.CreationDate,2023-04-24T13:22:53+02:00*%
%TF.ProjectId,EnviroHAT,456e7669-726f-4484-9154-2e6b69636164,rev?*%
%TF.SameCoordinates,Original*%
%TF.FileFunction,Soldermask,Bot*%
%TF.FilePolarity,Negative*%
%FSLAX46Y46*%
G04 Gerber Fmt 4.6, Leading zero omitted, Abs format (unit mm)*
G04 Created by KiCad (PCBNEW (7.0.0)) date 2023-04-24 13:22:53*
%MOMM*%
%LPD*%
G01*
G04 APERTURE LIST*
%ADD10R,1.700000X1.700000*%
%ADD11O,1.700000X1.700000*%
%ADD12C,4.000000*%
%ADD13C,2.700000*%
%ADD14C,1.524000*%
%ADD15O,1.070000X2.140000*%
%ADD16C,1.300000*%
G04 APERTURE END LIST*
D10*
%TO.C,J1*%
X163956999Y-133095999D03*
D11*
X166496999Y-133095999D03*
X169036999Y-133095999D03*
X171576999Y-133095999D03*
X174116999Y-133095999D03*
X176656999Y-133095999D03*
X179196999Y-133095999D03*
X181736999Y-133095999D03*
X184276999Y-133095999D03*
X186816999Y-133095999D03*
%TD*%
D12*
%TO.C,BT1*%
X184767000Y-110404000D03*
X168767000Y-55204000D03*
D13*
X184767000Y-46984000D03*
%TD*%
D14*
%TO.C,U8*%
X118110000Y-46990000D03*
X118110000Y-49530000D03*
X118110000Y-52070000D03*
X118110000Y-54610000D03*
X118110000Y-57150000D03*
X118110000Y-59690000D03*
X118110000Y-62230000D03*
X118110000Y-64770000D03*
X118110000Y-67310000D03*
X118110000Y-69850000D03*
X118110000Y-72390000D03*
X118110000Y-74930000D03*
X118110000Y-77470000D03*
X118110000Y-80010000D03*
X118110000Y-82550000D03*
X118110000Y-85090000D03*
X118110000Y-87630000D03*
X118110000Y-90170000D03*
X118110000Y-92710000D03*
X118110000Y-95250000D03*
X118110000Y-97790000D03*
X118110000Y-100330000D03*
X118110000Y-102870000D03*
X118110000Y-105410000D03*
X134620000Y-105410000D03*
X134620000Y-102870000D03*
X134620000Y-100330000D03*
X134620000Y-97790000D03*
X134620000Y-95250000D03*
X134620000Y-92710000D03*
X134620000Y-90170000D03*
X134620000Y-87630000D03*
X134620000Y-85090000D03*
X134620000Y-82550000D03*
X134620000Y-80010000D03*
X134620000Y-77470000D03*
X134620000Y-74930000D03*
X134620000Y-72390000D03*
X134620000Y-69850000D03*
X134620000Y-67310000D03*
X134620000Y-64770000D03*
X134620000Y-62230000D03*
X134620000Y-59690000D03*
X134620000Y-57150000D03*
X134620000Y-54610000D03*
X134620000Y-52070000D03*
X134620000Y-49530000D03*
X134620000Y-46990000D03*
%TD*%
D15*
%TO.C,J4*%
X152736999Y-40357999D03*
D16*
X153912000Y-43008000D03*
X158762000Y-43008000D03*
D15*
X159936999Y-40357999D03*
%TD*%
M02*
