M48
; DRILL file {KiCad (7.0.0)} date Thu Apr 20 20:35:35 2023
; FORMAT={-:-/ absolute / inch / decimal}
; #@! TF.CreationDate,2023-04-20T20:35:35+02:00
; #@! TF.GenerationSoftware,Kicad,Pcbnew,(7.0.0)
; #@! TF.FileFunction,Plated,1,2,PTH
FMAT,2
INCH
; #@! TA.AperFunction,Plated,PTH,ViaDrill
T1C0.0157
; #@! TA.AperFunction,Plated,PTH,ComponentDrill
T2C0.0197
; #@! TA.AperFunction,Plated,PTH,ComponentDrill
T3C0.0276
; #@! TA.AperFunction,Plated,PTH,ComponentDrill
T4C0.0394
%
G90
G05
T1
X3.815Y-3.25
X3.845Y-3.615
X3.86Y-3.455
X4.0Y-3.37
X4.05Y-3.42
X4.0875Y-3.5375
X4.0908Y-3.455
X4.195Y-4.66
X4.35Y-3.54
X4.62Y-3.78
X5.3426Y-5.3049
X5.3427Y-4.097
X5.3712Y-3.7363
X5.3731Y-2.2185
X5.4109Y-2.61
X5.53Y-5.08
X5.745Y-4.875
X5.8096Y-2.8798
X5.83Y-1.9588
X5.83Y-2.6331
X5.8425Y-3.9887
X5.8822Y-2.9056
X5.915Y-2.665
X6.0132Y-3.9887
X6.22Y-2.2369
X6.3351Y-5.006
X6.4563Y-3.8799
T3
X6.0595Y-1.6932
X6.2505Y-1.6932
T4
X3.7Y-1.89
X3.7Y-1.99
X3.7Y-2.09
X3.7Y-2.19
X3.7Y-2.29
X3.7Y-2.39
X3.7Y-2.49
X3.7Y-2.59
X3.7Y-2.69
X3.7Y-2.79
X3.7Y-2.89
X3.7Y-2.99
X3.7Y-3.09
X3.7Y-3.19
X3.7Y-3.29
X3.7Y-3.39
X3.7Y-3.49
X3.7Y-3.59
X3.7Y-3.69
X3.7Y-3.79
X3.7Y-3.89
X3.7Y-3.99
X3.7Y-4.09
X3.7Y-4.19
X3.7Y-4.29
X3.7Y-4.39
X3.7Y-4.49
X3.7Y-4.59
X3.7Y-4.69
X3.7Y-4.79
X3.7Y-4.89
X3.7Y-4.99
X3.7Y-5.09
X5.2Y-1.89
X5.2Y-1.99
X5.2Y-2.09
X5.2Y-2.19
X5.2Y-2.29
X5.2Y-2.39
X5.2Y-2.49
X5.2Y-2.59
X5.2Y-2.69
X5.2Y-2.79
X5.2Y-2.89
X5.2Y-2.99
X5.2Y-3.09
X5.2Y-3.19
X5.2Y-3.29
X5.2Y-3.39
X5.2Y-3.49
X5.2Y-3.59
X5.2Y-3.69
X5.2Y-3.79
X5.2Y-3.89
X5.2Y-3.99
X5.2Y-4.09
X5.2Y-4.19
X5.2Y-4.29
X5.2Y-4.39
X5.2Y-4.49
X5.2Y-4.59
X5.2Y-4.69
X5.2Y-4.79
X5.2Y-4.89
X5.2Y-4.99
X5.2Y-5.09
X6.455Y-5.24
X6.555Y-5.24
X6.655Y-5.24
X6.755Y-5.24
X6.855Y-5.24
X6.945Y-1.775
X6.945Y-4.5939
X6.955Y-5.24
X7.055Y-5.24
X7.155Y-5.24
X7.255Y-5.24
X7.355Y-5.24
T2
G00X6.0133Y-1.5731
M15
G01X6.0133Y-1.6046
M16
G05
G00X6.2967Y-1.5731
M15
G01X6.2967Y-1.6046
M16
G05
T0
M30
